<svg xmlns="http://www.w3.org/2000/svg" viewBox="0 0 405.08 749.43"><defs><style>.cls-1,.cls-11,.cls-14{fill:#fbb03b;}.cls-1,.cls-10,.cls-13,.cls-3,.cls-4,.cls-7,.cls-8,.cls-9{stroke:#332715;}.cls-1,.cls-10,.cls-11,.cls-12,.cls-13,.cls-14,.cls-3,.cls-4,.cls-5,.cls-7,.cls-8,.cls-9{stroke-linecap:round;stroke-linejoin:round;}.cls-1,.cls-10,.cls-11,.cls-3,.cls-4,.cls-7,.cls-8,.cls-9{stroke-width:2px;}.cls-2{fill:#171912;}.cls-3{fill:#7c5228;}.cls-4{fill:#212121;}.cls-12,.cls-13,.cls-5,.cls-7{fill:none;}.cls-5{stroke:#171912;stroke-width:3px;}.cls-6{fill:#d8d7d6;}.cls-15,.cls-6{opacity:0.7;}.cls-8{fill:#3f2a23;}.cls-9{fill:#cec5be;}.cls-10{fill:#bc964b;}.cls-11,.cls-12,.cls-14{stroke:#ad7d36;}.cls-14{stroke-width:4px;}.cls-15{fill:#fcddb6;}.cls-16{fill:#af6310;opacity:0.3;}</style></defs><title>guerreira</title><g id="Layer_2" data-name="Layer 2"><g id="CAVALEIRO"><path id="CAVALERO_CAPA" data-name="CAVALERO CAPA" class="cls-1" d="M404.08,361.94C372.63,483.33,304,409,264.26,480.2c-34.78,62.39-117,14.7-165.55,26.17-.44-73.65-.86-110.88-24.6-182.6,47.75-5.07,92.24,22,129.59-8.25,17.41,18.8,43.51,20.91,64.56,25.05,35.66,7,66,18.85,99,22.1C381,364,391.47,354.18,404.08,361.94Z"/><path id="cabelo_corstas" data-name="cabelo corstas" class="cls-2" d="M257,210C257,432.73,147,432.73,147,432.73S37,428.73,37,210.47C37,149.72,64.76,86.41,146.76,86.24,224.76,86.08,257,149.26,257,210Z"/><path id="braço1" class="cls-3" d="M283.61,500.09c-.83-2.55-7.11-3.73-4.72-7.43,3.65-1.07,6.44-1.62,9.7,2.87,2.67,3.69-4.22,9.47-4.51,13.71-.13,1.9,1.69,3,3.64,1.51,6.61-5.06,11.51-10.68,10.46-19.73-1.3-11.22-.59-8-6.23-21.81s-11.45-32.95-19.38-54-21.92-57.14-29.85-79.08c-3.34-9.22-7.12-10.52-12.08-9.24-19.23,5-35.87,12-53.75,18.58,14.56,24.59,36.27,60.23,49.47,82.11s27.06,39.24,34.79,54.18,8.41,15.16,15.24,20S283.9,501,283.61,500.09Z"/><path id="perna1" class="cls-4" d="M117.82,747.3l-43.67.09s-38,2.08-5.69-22.39c-2.39-23.39-9.54-87.58-9.54-87.58l-11.23-110c2.06-2.62,19.74-24.28,50-24.11,29.6.18,46.89,21.18,49.05,23.9q-4.4,55-8.77,110L130.25,736A12.52,12.52,0,0,1,117.82,747.3Z"/><path id="perna2" class="cls-4" d="M178.48,747.17l43.67-.09s38,1.92,5.59-22.41c2.29-23.41,9.18-87.62,9.18-87.62l10.77-110c-2.39-3-18.82-22.85-47.05-23.9-31.21-1.17-50,21.65-51.95,24.11q4.6,55,9.23,110L166,735.93A12.51,12.51,0,0,0,178.48,747.17Z"/><path class="cls-4" d="M243.69,532c-10.79,2.89-27.35-3.34-43.74-3.31-12,0-31,6.64-52.27,7.51-10.86.44-24.48-3.12-48.73-4.51-19.43-1.11-38,3.68-48.67-.07a4.14,4.14,0,0,1-2.7-4.39C51.71,492,57.83,480.7,62,445.42l-3.05-41A14.37,14.37,0,0,1,59,399l12.67-71.43a5.83,5.83,0,0,1,5.8-5.17l37.8-6.08,3.07-13.95a152.93,152.93,0,0,0,58.75-.34l3.18,14.15,42,5.91,12.83,73.58a27.72,27.72,0,0,1,.33,9.44l-2.44,40,13.65,72.15C247.24,522.42,248.76,530.68,243.69,532Z"/><path id="cabeça" class="cls-3" d="M259.91,245.62c0,10.69-8.62,24.66-19.31,24.68a26.94,26.94,0,0,1-9.15-1.46C219.67,286.11,200.3,297.1,177.06,302a145.49,145.49,0,0,1-29.89,3,147.05,147.05,0,0,1-28.86-2.68c-23.6-4.69-43.33-15.57-55.37-32.87a27.39,27.39,0,0,1-8.24,1.2c-10.69,0-19.39-13.91-19.41-24.6,0-13.33,6.47-12,15.15-13.7-.16-2.07-.23-4.18-.24-6.35-.16-77,43.1-114.49,96.56-114.6s96.87,33.9,97,114.2c0,2.09-.06,4.15-.19,6.15C252.83,233,259.87,231.14,259.91,245.62Z"/><path class="cls-2" d="M181.19,237.86c0,10.1,6.12,8.09,13.7,8.1s13.74,2.06,13.76-8.05-6.1-16.54-13.68-16.55S181.21,227.75,181.19,237.86Z"/><path class="cls-5" d="M212.33,239.23a21.55,21.55,0,0,0-8-17.15c-7.22-5.81-18.48-6.42-24.91-.14"/><path class="cls-2" d="M214.33,214.23A19.19,19.19,0,0,0,204.9,211a42.91,42.91,0,0,0-9.78.42,84.13,84.13,0,0,0-9.85,2c-1.64.43-3.27.92-4.91,1.46a37.83,37.83,0,0,0-4.91,2,15.07,15.07,0,0,1,3.72-4.12,27.88,27.88,0,0,1,4.68-3,33.87,33.87,0,0,1,10.57-3.33,26.17,26.17,0,0,1,11.28.69,16.29,16.29,0,0,1,5.15,2.62A11,11,0,0,1,214.33,214.23Z"/><ellipse class="cls-6" cx="200.83" cy="239.23" rx="4" ry="4.5"/><path class="cls-7" d="M182,271.73c0,7.46-19.87,15.12-28,16-7.81.85-27,0-31-9"/><path class="cls-2" d="M116.6,237.86c0,10.1-6.12,8.09-13.7,8.1S89.16,248,89.14,237.91s6.1-16.54,13.68-16.55S116.57,227.75,116.6,237.86Z"/><path class="cls-5" d="M79.45,239.23a21.52,21.52,0,0,1,8-17.15c7.22-5.81,18.48-6.42,24.9-.14"/><path class="cls-2" d="M77.45,214.23a11.16,11.16,0,0,1,3.48-4.41,16.44,16.44,0,0,1,5.16-2.62,26.16,26.16,0,0,1,11.28-.69,33.87,33.87,0,0,1,10.57,3.33,28.72,28.72,0,0,1,4.68,3,14.87,14.87,0,0,1,3.71,4.12,37.15,37.15,0,0,0-4.9-2q-2.46-.81-4.92-1.46a83.71,83.71,0,0,0-9.85-2,42.89,42.89,0,0,0-9.78-.42A19.19,19.19,0,0,0,77.45,214.23Z"/><ellipse class="cls-6" cx="109.95" cy="239.23" rx="4" ry="4.5"/><path class="cls-4" d="M243.69,532c-10.79,2.89-27.35-3.34-43.74-3.31-12,0-31,6.64-52.27,7.51-10.86.44-24.48-3.12-48.73-4.51-19.43-1.11-38,3.68-48.67-.07a4.14,4.14,0,0,1-2.7-4.39C51.71,492,57.83,480.7,62,445.42l-3.05-41A14.37,14.37,0,0,1,59,399l12.67-71.43a5.83,5.83,0,0,1,5.8-5.17l37.8-6.08,3.07-13.95a152.93,152.93,0,0,0,58.75-.34l3.18,14.15,42,5.91,12.83,73.58a27.72,27.72,0,0,1,.33,9.44l-2.44,40,13.65,72.15C247.24,522.42,248.76,530.68,243.69,532Z"/><path class="cls-8" d="M249.67,526c0,15.48-4.16,48-7.8,73.71-2.86,20.2-5.42,36.12-5.42,36.12s-1.08,9.68-2.54,22.88c-2.17,19.65-5.18,47.11-6.74,62.16a1.43,1.43,0,0,1-1.43,1.29H165.51a1.43,1.43,0,0,1-1.44-1.33l-4.83-62.12-1.79-23c-1-13.16-2.1-24.78-3.15-36-1.73-18.48-3.46-35.77-5.19-56.88a1.44,1.44,0,0,0-2.88,0c-2.78,33.65-5.54,57.64-8.32,92.41l-6.64,85.59a1.45,1.45,0,0,1-1.44,1.33H69.68a1.44,1.44,0,0,1-1.44-1.29c-2.57-24.91-9.33-85.46-9.33-85.46S46.05,553.25,45.69,525.6c-.18-14.69,4.73-49.87,5.19-58.51a1.43,1.43,0,0,1,1.44-1.36H241.61a1.43,1.43,0,0,1,1.44,1.32C243.73,475.62,249.68,511.18,249.67,526Z"/><path class="cls-9" d="M139.83,635.18H55.68c-.38,0,11.77,90.66,11.78,90.82-32.31,24.47,5.68,22.39,5.68,22.39l43.67-.09c6.43,0,12.81-4.9,13.44-11.3l.92-11.87C131.06,725.17,140,635.18,139.83,635.18Z"/><path class="cls-10" d="M139.83,635.18s-.59,6.49-1.51,16H57.58c-1.21-9.51-2-16-1.9-16Z"/><path id="cabelo_frente" data-name="cabelo frente" class="cls-9" d="M257,226,146.4,149.91S35,227.37,35,226.47C35,158.73,53,80.66,146.76,80.24,260,79.73,260,204.73,257,226Z"/><path class="cls-11" d="M231.33,60.57c38,37.15,80.6,47.85,90.83-19-31.85,52.49-64.08-16.94-107.91-36s-83.44,24.46-67.09,67.15C153.57,16,193.31,23.42,231.33,60.57Z"/><path class="cls-12" d="M146.85,58.89c57.47-112.42,144.72,67.16,162.79,6.2"/><polygon class="cls-10" points="166.95 87.73 148.45 103.73 129.95 87.73 140.95 60.73 155.95 60.73 166.95 87.73"/><path class="cls-9" d="M149,116.73l-116,99v27l113,34,116-34v-25Zm-91,126-11-3v-22l11.58-10Zm65,19-55-16v-46l28-2,27,13Zm102-16-55,16v-51l27-13,28,2Zm20.58-6-11,3-.58-35,11.58,10Z"/><polyline class="cls-13" points="65.45 714.23 89.45 671.23 132.45 718.23"/><polyline class="cls-13" points="63.45 687.23 89.45 634.23 134.45 693.23"/><polygon class="cls-9" points="93.04 662 57.68 635 93.04 609.3 128.78 635.91 93.04 662"/><polygon class="cls-9" points="84.95 725.73 62.95 727.73 88.95 702.73 130.95 730.73 84.95 725.73"/><polyline class="cls-13" points="93.45 609.23 85.45 638.23 93.45 662.23"/><path class="cls-9" d="M155.44,635.18h84.15c.39,0-11.76,90.66-11.78,90.82,32.31,24.47-5.68,22.39-5.68,22.39l-43.67-.09c-6.43,0-12.81-4.9-13.44-11.3l-.92-11.87C164.21,725.17,155.32,635.18,155.44,635.18Z"/><path class="cls-10" d="M155.44,635.18s.59,6.49,1.51,16h80.74c1.21-9.51,2-16,1.9-16Z"/><polygon class="cls-10" points="238.45 467.23 57.45 468.38 61.45 446.23 234.45 444.4 238.45 467.23"/><path id="braco2" class="cls-3" d="M61.33,479.94c-4.08-1-5.77-3.91-9.82-3.6-3.59,5.48-3,8.62-3.83,16.78-.67,6.71,5.2,11.48,6.85,16.81.73,2.4-1,3.19-3.23,2.08-7.63-3.8-11.43-10-13.9-18.18-3.07-10.16-4.85-6.13-8.68-18.67s-29.65-16-24.43-43,39.49-83.69,63.53-104.07c10.1-8.57,11.4-8.43,15.32-4.66,15.23,14.62,24.14,27.58,39.31,41-22.71,18.08-53.15,50.1-69.63,65.67s2.23,17.37,2.92,27.43,6.19,10.93,8.12,16.06S62.74,480.28,61.33,479.94Z"/><path class="cls-10" d="M46.62,435.46c-.17.66,7,18.69,8,21.09-8.45,8.54-13.83,19.62-22.44,28.19C24.77,471.61,2.28,452.45,1,438.83,16.6,442.23,31.08,435.89,46.62,435.46Z"/><path class="cls-9" d="M46.69,436.49c3.28,5,5.06,10.28,7.24,15.79-9,8.62-16,19.13-24.49,28.33C20.81,468.52,8,457,2.2,443.25,17.35,443.22,31.43,436.77,46.69,436.49Z"/><path class="cls-13" d="M34.55,437.38c-6.45,4.65-6.82,31.18-7.95,39.78"/><path class="cls-13" d="M20.22,440.8c-4.87,4-4.77,15.06-5.19,20.76"/><polyline class="cls-13" points="229.82 714.23 205.82 671.23 162.82 718.23"/><polyline class="cls-13" points="231.82 687.23 205.82 634.23 160.82 693.23"/><polygon class="cls-9" points="202.23 662 237.6 635 202.23 609.3 166.49 635.91 202.23 662"/><polygon class="cls-9" points="210.32 725.73 232.32 727.73 206.32 702.73 164.32 730.73 210.32 725.73"/><polyline class="cls-13" points="201.82 609.23 209.82 638.23 201.82 662.23"/><polygon class="cls-10" points="188.95 163.73 178.95 177.73 169.95 188.73 145.95 162.73 122.95 188.73 113.95 177.73 103.95 163.73 123.53 145.73 123.37 157.6 145.95 137.73 169.54 158.49 169.37 145.73 188.95 163.73"/><path class="cls-10" d="M78,312.73l35,2-13,41c-11.13-.4-21-9-33-10-18.69-1.56-30.62-.54-43,4,2.12-6.2,13-20,20-25C53.3,318.05,71.79,313.65,78,312.73Z"/><polygon class="cls-9" points="232.95 444.73 61.95 445.73 54.95 431.73 66.95 345.73 147.95 364.73 184.89 357.25 226.95 348.73 240.95 428.73 232.95 444.73"/><polygon class="cls-10" points="234.77 442.53 259.47 480.35 296.19 480.22 276.08 419.77 234.77 442.53"/><polygon class="cls-9" points="238.62 448.6 255.21 475.69 294.64 474.78 278.01 426.58 238.62 448.6"/><polyline class="cls-13" points="64.95 368.73 147.95 407.73 195.45 356.23"/><polyline class="cls-13" points="64.95 367.73 147.95 384.73 195.45 356.23"/><polyline class="cls-13" points="62.95 384.73 147.95 436.73 195.45 356.23"/><line class="cls-13" x1="200.67" y1="443.68" x2="195.45" y2="356.23"/><line class="cls-13" x1="221.45" y1="445.23" x2="208.45" y2="353.23"/><line class="cls-13" x1="250.21" y1="442.56" x2="293.29" y2="470.02"/><line class="cls-13" x1="263.04" y1="435.97" x2="286.52" y2="451.36"/><path class="cls-13" d="M58.45,416.23c14.5,9.5,26.5,18.5,40,27.44"/><polyline class="cls-13" points="49.45 321.79 71.45 330.79 100.45 353.23"/><polyline class="cls-13" points="75.45 311.79 95.45 328.23 100.45 353.23"/><path class="cls-10" d="M217,312.73l-35,2,13,41c11.14-.4,21-9,33-10,18.7-1.56,30.62-.54,43,4-2.12-6.2-13-20-20-25C241.6,318.05,223.12,313.65,217,312.73Z"/><polyline class="cls-13" points="245.45 321.79 223.45 330.79 194.45 353.23"/><polyline class="cls-13" points="219.45 311.79 199.45 328.23 194.45 353.23"/><polygon class="cls-14" points="207.95 367.73 181.95 367.94 181.95 344.73 207.95 344.41 207.95 367.73"/><path class="cls-15" d="M202,359.73c-1.44,0-1-2-1-4v-4c-.26-.75-3.49.21-4-.45-.86-1.12,1.14-2.57,2.56-2.58l1.84,0a2.58,2.58,0,0,1,2.6,2.58v5.9C204,358.61,203.37,359.75,202,359.73Z"/><path class="cls-16" d="M190.56,351.73c2.6,0,1.8,2.15,1.8,4.33v4.37c.48.81,6.29-.23,7.21.48,1.57,1.22-2,2.8-4.6,2.82l-3.31,0c-2.59,0-4.71-1.25-4.71-2.82v-6.44C187,353,188,351.71,190.56,351.73Z"/><path class="cls-15" d="M198.75,364.87c-1.05,0-1.47-2.23-1.47-2.23-.2-.54-.8-2,.41-2.94.27-.21,1.35,0,1.35,0,1.06,0,2.15.87,1.92,1.9S200.23,364.85,198.75,364.87Z"/></g></g></svg>