<svg xmlns="http://www.w3.org/2000/svg" viewBox="0 0 208.35 145.04"><defs><style>.cls-1{fill:#fff;}</style></defs><title>mago-icon</title><g id="Camada_2" data-name="Camada 2"><g id="Camada_1-2" data-name="Camada 1"><path d="M161.32,131.43c0,4.06-.94,7.21-2.82,9.39-11.31,13.21-61.12-6.49-96.43-32.27C26.43,82.54-7.77,40.7,1.56,25.75c1.95-3.13,5.85-5.28,11.58-6.38a50.47,50.47,0,0,1,9.5-.81c10.7,0,24.41,2.47,38.79,7.36-2.7,1.39-5.26,2.79-7.64,4.22l-.56.33-1.51.93-.46.29-.85.55-.19.12c-.07.06-.14.1-.21.15-1.06.7-2,1.39-2.84,2.06l0,0c-.5.41-1,.82-1.39,1.22l-.47.46c-.39.39-.75.78-1.09,1.17,0,0,0,0,0,0a14.86,14.86,0,0,0-1.4,1.94c-.15.25-.28.49-.41.72v0c-.13.25-.25.5-.35.74a9.57,9.57,0,0,0-.69,2.42c0,.11,0,.22,0,.33a5.09,5.09,0,0,0,0,.55,7.84,7.84,0,0,0,0,1.38c0,.27.07.54.11.8s.09.4.14.59c0,0,0,.06,0,.08s0,.09,0,.13a.08.08,0,0,0,0,0,1.46,1.46,0,0,0,0,.2c0,.11.06.22.1.33a2.25,2.25,0,0,0,.08.24l.18.51c.19.49.4,1,.6,1.36s.31.62.46.89A10,10,0,0,1,43.64,52C48.27,64.43,60.94,79,78.41,92c13.75,10.24,30.19,16.9,41.93,19.49a0,0,0,0,1,0,0c-.55,2.36-2,9.32-.88,12.32,1.4,3.64,6.56,4.42,9.28,3.36s3.12-3.56,1.72-7.21c-1-2.6-5.64-6.22-8.21-8.07l-.06-.05c.74.15,1.46.27,2.15.38a18.09,18.09,0,0,0,2.75.21,14.65,14.65,0,0,0,5.73-1.09v0c.07,1.78.38,6.85,1.74,8.86,1.66,2.46,5.4,3.08,7.28,1.82s1.54-3.69-.12-6.14c-1.34-2-6.31-4.13-8.19-4.88a.2.2,0,0,0,.09,0,9.88,9.88,0,0,0,2.63-1.92c.19-.2.38-.41.55-.62a9.58,9.58,0,0,0,1.34-2.21v0a18.15,18.15,0,0,0,3.27,4.2,3.37,3.37,0,0,0,.61.4,3.48,3.48,0,0,0,4.69-1.5c.82-1.44-.15-2.92-2-4-1.26-.74-4.26-.71-6-.62h0c0-.14.08-.29.11-.44h0l2-8.82,1.9-8.39c10.58,15.19,17.22,30.21,18.44,40.85A31.57,31.57,0,0,1,161.32,131.43Z"/><path d="M207.51,26.38,149.82,53.71l-.21.12a2.1,2.1,0,0,0-1,1.31,2.15,2.15,0,0,0,.27,1.63,1.62,1.62,0,0,1,.22.46A1.76,1.76,0,0,1,148,59.42,2.14,2.14,0,0,0,146.52,61l-4.83,21.33-.29,1.28-.29,1.28L139,94.24a16.53,16.53,0,0,1-2.63-.18c-11.53-1.79-29.93-8.63-45-19.88-17.16-12.7-29.58-27-34.08-39.09L57.18,35a38.21,38.21,0,0,1-1.64-3.56c2.64-1.55,5.5-3.07,8.51-4.58.4-.2.81-.41,1.22-.6s.82-.41,1.23-.61c13.82-6.69,30.29-12.88,43.34-17.79,7.18-2.7,13.38-5,17.64-6.87,13.31-5.75,64.6,16,80,22.79a1.44,1.44,0,0,1,0,2.63Z"/><path class="cls-1" d="M42.78,39.41a14.86,14.86,0,0,1,1.4-1.94A13.19,13.19,0,0,0,42.78,39.41Zm1.42-2c.34-.39.7-.78,1.09-1.17A14.69,14.69,0,0,0,44.2,37.44Zm5.83-5a35,35,0,0,0-2.86,2.09C48,33.9,49,33.21,50,32.51c.07,0,.14-.09.21-.15Zm88.74,71.78h0c0,.15-.07.3-.11.44h0c0-.15.08-.32.12-.48l2-8.78Zm-.64,1.94a9.58,9.58,0,0,1-1.34,2.21,9.34,9.34,0,0,0,1.35-2.19Z"/><path class="cls-1" d="M41.53,47s0-.1-.05-.16l.06.24c0,.05,0,.09,0,.13A1.6,1.6,0,0,0,41.53,47Zm85.55,65.44a18.09,18.09,0,0,1-2.75-.21c-.69-.11-1.41-.23-2.15-.38l.06.05c.72.14,1.41.26,2.08.36a17.83,17.83,0,0,0,2.73.21,14.77,14.77,0,0,0,5.76-1.1v0A14.65,14.65,0,0,1,127.08,112.41ZM78.41,92C60.94,79,48.27,64.43,43.64,52a10,10,0,0,0-.57-1.19c-.15-.27-.3-.57-.46-.89S42.2,49,42,48.51a18,18,0,0,0,1,2.29A10,10,0,0,1,43.62,52c4.58,12.4,17.26,27,34.77,40,13.79,10.24,30.22,16.89,41.94,19.49a0,0,0,0,0,0,0C108.6,108.85,92.16,102.19,78.41,92ZM41.6,47.23a1.46,1.46,0,0,0,0,.2c0,.11.06.22.1.33Z"/></g></g></svg>