<svg xmlns="http://www.w3.org/2000/svg" viewBox="0 0 424.27 664.19"><defs><style>.cls-1{fill:#7f5639;}.cls-1,.cls-10,.cls-11,.cls-12,.cls-13,.cls-14,.cls-2,.cls-3,.cls-5,.cls-6,.cls-7,.cls-9{stroke:#332715;}.cls-1,.cls-10,.cls-11,.cls-12,.cls-13,.cls-14,.cls-15,.cls-16,.cls-17,.cls-18,.cls-2,.cls-3,.cls-5,.cls-6,.cls-7,.cls-9{stroke-linecap:round;stroke-linejoin:round;}.cls-1,.cls-10,.cls-11,.cls-12,.cls-14,.cls-15,.cls-2,.cls-3,.cls-6,.cls-7,.cls-9{stroke-width:2px;}.cls-2{fill:#212121;}.cls-3{fill:#6b5c44;}.cls-4{fill:#171912;}.cls-12,.cls-13,.cls-16,.cls-5{fill:none;}.cls-5{stroke-width:3px;}.cls-6{fill:#c69773;}.cls-7{fill:#8e411a;}.cls-8{fill:#d8d7d6;}.cls-19,.cls-8{opacity:0.7;}.cls-9{fill:#3f2a23;}.cls-10{fill:#594538;}.cls-11{fill:#76964b;}.cls-14{fill:#a08d3c;}.cls-15,.cls-17{fill:#a5d4ae;}.cls-15,.cls-16,.cls-17{stroke:#399e7c;}.cls-18{fill:#71b352;stroke:#353207;stroke-width:2.54px;}.cls-19{fill:#f4d3b0;}.cls-20{fill:#332715;opacity:0.3;}</style></defs><title>elfo-exemplo-classe</title><g id="Camada_2" data-name="Camada 2"><g id="ELFO"><g id="benino"><path id="braco2" class="cls-1" d="M19.19,374.59c4.44-7.53,4.71-12.53,4.71-12.53s-1.54-4.64-10.43-2.41c-7.31,1.83-4.77,11.41-8.34,14-1.6,1.14-3.3.29-3.6-1.65-1-6.62-1.32-12.88,6.15-21.74,9.25-11,15-14,15-14l42.93-38.67L132.71,241c7-6,12.25-4.16,14.73-1.48l37.65,42.4L99.93,330.54,43,361.1,25.61,376.47C23.48,378.63,17.65,377.2,19.19,374.59Z"/><path id="braço1" class="cls-1" d="M405.12,373.77c-4.48-7.51-4.77-12.5-4.77-12.5s1.52-4.65,10.43-2.46c7.31,1.8,4.81,11.39,8.39,13.91,1.61,1.14,3.3.28,3.59-1.66,1-6.63,1.27-12.89-6.24-21.71-9.3-10.93-15-13.92-15-13.92l-43.1-38.49L291,240.64c-7-6-12.27-4.11-14.74-1.42l-37.45,42.56,85.37,48.29,57.07,30.31,17.45,15.3C400.84,377.83,406.67,376.37,405.12,373.77Z"/><path id="perna1" class="cls-2" d="M180,662.06l-43.67.09s-38,2.08-5.68-22.39c-2.39-23.39-9.55-87.57-9.55-87.57l-5.23-110c2.06-2.62,13.74-24.28,44-24.11,29.61.18,46.89,21.18,49.05,23.9q-4.38,55-8.77,110l-7.66,98.74A12.53,12.53,0,0,1,180,662.06Z"/><path id="perna2" class="cls-2" d="M240.65,661.94l43.67-.1s38,1.92,5.6-22.41c2.29-23.4,9.17-87.62,9.17-87.62l4.77-110c-2.38-3-12.82-22.85-41.05-23.9-31.2-1.17-50,21.65-51.95,24.11q4.62,55,9.23,110l8.08,98.71A12.52,12.52,0,0,0,240.65,661.94Z"/><path id="cabelo_corstas" data-name="cabelo corstas" class="cls-3" d="M319.2,124.77C319.32,185.52,209.32,185,209.32,185s-110,1-110.12-59.77S126.94,1.17,208.94,1C286.94.84,319.07,64,319.2,124.77Z"/><path class="cls-1" d="M299.87,446.8c-10.79,2.89-21.35-3.34-37.74-3.31-12,0-31,6.64-52.27,7.51-10.86.44-24.48-3.12-48.73-4.51-19.43-1.11-32,3.68-42.67-.07a4.14,4.14,0,0,1-2.7-4.39c4.13-35.29,2.25-70.57,6.38-105.85l11.68-93.86a5.83,5.83,0,0,1,5.8-5.17l37.8-6.08,3.07-13.95a147,147,0,0,0,28.86,2.68,145.56,145.56,0,0,0,29.89-3l3.18,14.15,42,5.91,12.72,99L302.79,432C303.42,437.18,304.94,445.44,299.87,446.8Z"/><path id="cabeça-ELFO" class="cls-1" d="M322.36,160.38c0,10.69-8.62,24.66-19.31,24.68a26.84,26.84,0,0,1-9.14-1.46c-11.79,17.27-31.15,28.26-54.39,33.18a145.66,145.66,0,0,1-29.9,3,146.88,146.88,0,0,1-28.85-2.68c-23.6-4.69-43.34-15.57-55.37-32.87a27.5,27.5,0,0,1-8.25,1.2c-10.69,0-19.22-13.91-19.41-24.6-.33-18.36-4.33-26.36,15.15-13.7-.15-2.07-.23-4.18-.23-6.35-.16-77,43.1-114.49,96.56-114.6s96.87,33.9,97,114.2c0,2.09-.06,4.15-.2,6.15C318.41,136.49,322.41,129.49,322.36,160.38Z"/><path class="cls-4" d="M176.77,157.62c0,10.11-6.12,17.09-13.7,17.11s-13.73-7.95-13.76-18.06,6.1-18.54,13.69-18.55S176.75,147.51,176.77,157.62Z"/><path class="cls-4" d="M264.77,157.62c0,10.11-6.12,17.09-13.7,17.11s-13.73-7.95-13.76-18.06,6.1-18.54,13.69-18.55S264.75,147.51,264.77,157.62Z"/><path class="cls-5" d="M140.77,159.8c0-9.36,5.65-19.17,12.83-25s14.48-4.42,20.91,1.86"/><path class="cls-6" d="M135.71,125.87c4.9-8,14.85-13.39,24-14.56s14.66,3.8,16.85,12.51Z"/><path class="cls-5" d="M272.78,159.53c0-9.37-5.72-19.16-12.93-24.91s-14.5-4.36-20.9,1.95"/><path class="cls-6" d="M277.7,125.57c-4.94-8-14.9-13.33-24-14.46S239,115,236.85,123.69Z"/><path class="cls-7" d="M232.34,195c0,7.46-10.27,13.52-23,13.55s-23-6-23-13.45Z"/><path id="cabelo_frente" data-name="cabelo frente" class="cls-6" d="M319.2,124.77c.12,60.75-58.13-57.88-58.13-57.88-48.9,46.1-84.71,58.2-90.89,51.19-3.94-4.47-9.3-16.13,9.92-41-34.18,29.3-72,58.91-79.58,52a5,5,0,0,1-1.32-3.85C99.07,64.48,126.94,1.17,208.94,1,286.94.84,319.07,64,319.2,124.77Z"/><ellipse class="cls-8" cx="167.13" cy="166.99" rx="4" ry="4.5"/><ellipse class="cls-8" cx="254.13" cy="166.99" rx="4" ry="4.5"/></g><g id="ELFo-2" data-name="ELFo"><path class="cls-9" d="M308.85,444.78c0,15.48-.16,48-3.8,73.71-2.86,20.2-5.42,36.12-5.42,36.12s-1.08,9.68-2.54,22.88c-2.17,19.65-5.18,47.11-6.74,62.16a1.43,1.43,0,0,1-1.43,1.29H228.69a1.43,1.43,0,0,1-1.44-1.33l-4.83-62.12-1.79-23c-1-13.16-2.1-24.78-3.15-36-1.73-18.48-3.46-35.77-5.19-56.88a1.44,1.44,0,0,0-2.88,0c-2.78,33.65-5.54,57.64-8.32,92.41l-6.64,85.59a1.45,1.45,0,0,1-1.44,1.33H132.86a1.44,1.44,0,0,1-1.44-1.29c-2.57-24.91-9.33-85.46-9.33-85.46s-8.86-82.18-9.22-109.83c-.18-14.69,5.73-49.87,6.19-58.51a1.43,1.43,0,0,1,1.44-1.36H299.79a1.43,1.43,0,0,1,1.44,1.32C301.91,394.38,308.86,429.94,308.85,444.78Z"/><path class="cls-10" d="M209,479.94H108.86c-.39,0,21.76,160.66,21.78,160.82-32.31,24.47,5.68,22.39,5.68,22.39l43.67-.09c6.43,0,12.81-4.9,13.44-11.3l.92-11.87C194.24,639.93,209.13,479.94,209,479.94Z"/><path class="cls-10" d="M214.62,479.94h99.15c.38,0-21.77,160.66-21.78,160.82,32.31,24.47-5.68,22.39-5.68,22.39l-43.67-.09c-6.43,0-12.81-4.9-13.44-11.3l-.92-11.87C228.39,639.93,214.5,479.94,214.62,479.94Z"/><path class="cls-10" d="M209,479.94a194,194,0,0,1-.72,30H108.75c-2.39-17.74,0-30,.11-30Z"/><path class="cls-10" d="M314,479.49a194,194,0,0,1-.72,30H213.75c-2.39-17.74,0-30,.11-30Z"/><polygon class="cls-11" points="61.08 289.57 105.08 336.57 165.13 281.49 134.08 237.99 61.08 289.57"/><polygon class="cls-11" points="357.13 287.57 313.13 334.57 253.08 279.49 284.13 235.99 357.13 287.57"/><path class="cls-11" d="M304.87,446.8c-10.79,2.89-26.35-3.34-42.74-3.31-12,0-31,6.64-52.27,7.51-10.86.44-24.48-3.12-48.73-4.51-19.43-1.11-37,3.68-47.67-.07a4.14,4.14,0,0,1-2.7-4.39c4.13-35.29,7.25-70.57,11.38-105.85l11.68-93.86a5.83,5.83,0,0,1,5.8-5.17l37.8-6.08L209.34,271l33.08-40.07,42,5.91,12.72,99L307.79,432C308.42,437.18,309.94,445.44,304.87,446.8Z"/><g id="LAÇO"><line class="cls-12" x1="209.13" y1="271.49" x2="193.13" y2="277.49"/><line class="cls-12" x1="210.13" y1="271.49" x2="226.13" y2="277.49"/><line class="cls-12" x1="209.13" y1="284.49" x2="193.13" y2="278.49"/><line class="cls-12" x1="210.13" y1="284.49" x2="226.13" y2="278.49"/><line class="cls-12" x1="209.13" y1="285.49" x2="193.13" y2="289.49"/><line class="cls-12" x1="210.13" y1="285.49" x2="226.13" y2="290.49"/><line class="cls-12" x1="209.13" y1="296.49" x2="193.13" y2="289.49"/><path class="cls-12" d="M226.13,290.49l-16,6s-9,18-16,10,14-10,14-10,25,1,20,9-18-9-18-9l-8,26"/><line class="cls-12" x1="216.13" y1="322.49" x2="210.13" y2="296.49"/></g><path class="cls-13" d="M146.13,453.49s51,1,64,7"/><path class="cls-14" d="M210.13,269.49a47.87,47.87,0,0,0-25.5-1.5,47,47,0,0,0-15.5,6.5l-6-41,15-2Z"/><path class="cls-14" d="M210.13,269.49a47.87,47.87,0,0,1,25.5-1.5,47,47,0,0,1,15.5,6.5l6-41-16-3Z"/><polygon class="cls-14" points="116.03 326.52 105.08 336.57 61.08 289.57 73.34 280.91 116.03 326.52"/><polygon class="cls-14" points="302.08 324.52 313.03 334.57 357.03 287.57 344.77 278.91 302.08 324.52"/><path class="cls-15" d="M337.38,117.94C353.1,136.63,375,142.65,375,142.65S338.73,147.74,323,129,305.8,92.13,305.8,92.13,321.66,99.24,337.38,117.94Z"/><path class="cls-16" d="M309.69,96.76S331,136.17,359.07,140.2"/><path class="cls-17" d="M296,78.6,295.55,77c0-.17.11-.25.25-.15l1.44,1.06c.13.1.26,0,.26-.09l-.06-1.58c0-.15.18-.19.3,0L299,77.48c.11.12.26.11.29,0l.33-1.41c0-.14.23-.12.33,0l1,1.53c.08.14.25.17.31.07l.7-1.15c.07-.12.27-.05.33.12l.66,1.63c.06.14.22.22.31.14l1-.82c.1-.09.29,0,.32.19l.29,1.63c0,.14.18.26.29.22l1.28-.46c.13,0,.3.12.29.27l-.1,1.52a.27.27,0,0,0,.25.27l1.46,0a.26.26,0,0,1,.24.31l-.48,1.32a.26.26,0,0,0,.2.31l1.54.37c.16,0,.26.24.18.34l-.84,1c-.07.09,0,.26.13.32l1.54.76c.15.07.21.28.1.35l-1.14.69c-.1,0-.07.23.06.32l1.43,1.09c.14.11.15.32,0,.35l-1.36.29c-.12,0-.13.18,0,.3l1.24,1.36c.12.14.08.32-.07.31l-1.51-.12c-.13,0-.18.13-.1.26l1,1.55c.1.16,0,.31-.15.25l-1.55-.52c-.14,0-.23.06-.17.21l.62,1.63c.06.16-.07.27-.22.18l-1.5-.89c-.13-.08-.26,0-.23.13l.25,1.62c0,.17-.14.23-.28.11l-1.36-1.21c-.12-.11-.26-.08-.28.05l-.14,1.51c0,.15-.2.16-.31,0L304,94.36c-.1-.12-.26-.14-.31,0l-.52,1.3c-.05.13-.25.08-.33-.08L302,94c-.07-.14-.24-.2-.31-.11l-.87,1c-.09.1-.29,0-.33-.16L300,93.05c0-.14-.2-.24-.3-.18l-1.16.64c-.12.07-.31-.07-.32-.23l-.09-1.59c0-.14-.15-.27-.27-.24l-1.38.25a.27.27,0,0,1-.27-.3l.29-1.43a.26.26,0,0,0-.22-.29l-1.52-.16c-.15,0-.28-.22-.21-.34l.67-1.18a.26.26,0,0,0-.17-.32l-1.55-.57c-.16,0-.24-.26-.14-.35l1-.86c.09-.08,0-.26-.09-.34l-1.49-.92c-.15-.1-.19-.31-.06-.36l1.26-.49c.11,0,.1-.21,0-.32l-1.34-1.23c-.13-.13-.12-.32,0-.33l1.44-.08c.13,0,.16-.16.07-.29l-1.11-1.47c-.11-.14,0-.31.11-.28l1.54.32c.14,0,.21-.09.14-.23l-.8-1.61c-.08-.16,0-.29.19-.22l1.54.72A.14.14,0,0,0,296,78.6Z"/><path class="cls-15" d="M325.73,127.21c10,22.26,29.45,34,29.45,34s-36.24-4.94-46.3-27.2-6.54-40.19-6.54-40.19S315.67,104.94,325.73,127.21Z"/><path class="cls-16" d="M304.83,99.31s9.78,43.7,35.73,55.21"/><path class="cls-17" d="M296.89,78.81l0-1.64c0-.17.17-.21.28-.08l1.07,1.35c.1.12.24.11.27,0l.4-1.49c0-.15.21-.14.3,0l.81,1.57c.07.13.22.17.29.06l.71-1.24c.07-.12.25-.06.3.11l.51,1.68c.05.15.19.23.28.15l1-.91c.1-.09.27,0,.29.19l.17,1.69c0,.15.14.27.25.22l1.21-.52c.12,0,.27.1.25.26l-.19,1.6c0,.14.1.28.22.27l1.35-.1c.13,0,.25.18.2.32l-.52,1.4a.25.25,0,0,0,.16.32l1.4.32a.26.26,0,0,1,.14.36l-.83,1.11a.25.25,0,0,0,.1.34l1.37.73a.25.25,0,0,1,.07.37l-1.09.76c-.1.06-.08.24,0,.34L309,89.43c.12.11.12.33,0,.36l-1.27.36c-.11,0-.14.2,0,.32l1.05,1.38c.1.13.06.33-.08.32l-1.38-.07c-.12,0-.18.14-.11.28l.78,1.58c.08.16,0,.32-.15.28l-1.4-.49c-.12,0-.21.07-.17.22l.48,1.69c0,.17-.08.29-.22.2L305.12,95c-.11-.08-.23,0-.22.15l.13,1.68c0,.17-.14.24-.26.12l-1.18-1.21a.14.14,0,0,0-.26.07l-.22,1.58c0,.16-.19.17-.29,0l-.95-1.47c-.09-.13-.23-.13-.28,0L301,97.28c-.06.14-.24.1-.3-.07l-.67-1.63c-.06-.15-.21-.2-.28-.11l-.86,1.08c-.09.11-.27,0-.3-.15l-.34-1.7c0-.15-.17-.24-.27-.18l-1.11.72c-.11.07-.27-.07-.27-.23V93.35c0-.14-.12-.27-.24-.25l-1.29.32c-.12,0-.26-.15-.23-.3l.36-1.51a.25.25,0,0,0-.19-.29l-1.38-.12a.25.25,0,0,1-.18-.34l.69-1.26a.25.25,0,0,0-.13-.33l-1.4-.53a.26.26,0,0,1-.11-.37l1-.94a.24.24,0,0,0-.06-.34l-1.32-.92c-.14-.09-.15-.31,0-.37l1.19-.56c.1,0,.1-.22,0-.33l-1.16-1.24c-.12-.13-.09-.33.05-.35l1.33-.14c.12,0,.16-.17.08-.3l-.93-1.5c-.09-.15,0-.32.12-.3l1.4.28c.12,0,.2-.11.14-.25l-.63-1.65c-.07-.16,0-.3.18-.23l1.38.68c.12.06.22,0,.19-.18l-.3-1.7c0-.17.11-.27.24-.16l1.26,1A.15.15,0,0,0,296.89,78.81Z"/><polygon class="cls-18" points="304.36 73.17 319.19 103.73 278.77 87.56 304.36 73.17"/><path class="cls-19" d="M299.61,81.55c2.51.68,4.81,2.45,5.14,4s-1.92-.1-4.42-.78c-5-1.35-4.52-1.16-4.63-1.69C295.36,81.53,297.11,80.87,299.61,81.55Z"/><path class="cls-20" d="M305.43,94.8c3.69.44,4.62-.83,4.5-3s-3.22-1.69-7.14-2.94-7.2-3.82-7.08-1.61S298.53,94,305.43,94.8Z"/><path class="cls-19" d="M306.6,87.65c.92.57-.36.08-.51.57s-4-.84-4.95-1.41,1.46-.15,1.61-.64C303.17,84.81,309.35,89.35,306.6,87.65Z"/></g></g></g></svg>