<svg xmlns="http://www.w3.org/2000/svg" viewBox="0 0 289 694.71"><defs><style>.cls-1{fill:#4d5960;}.cls-1,.cls-10,.cls-11,.cls-12,.cls-13,.cls-14,.cls-2,.cls-20,.cls-3,.cls-4,.cls-5,.cls-7,.cls-8{stroke:#332715;}.cls-1,.cls-10,.cls-11,.cls-12,.cls-14,.cls-15,.cls-18,.cls-19,.cls-2,.cls-20,.cls-3,.cls-4,.cls-5,.cls-7,.cls-8{stroke-linecap:round;stroke-linejoin:round;}.cls-1,.cls-10,.cls-11,.cls-12,.cls-13,.cls-14,.cls-18,.cls-19,.cls-2,.cls-20,.cls-3,.cls-4,.cls-5,.cls-8{stroke-width:2px;}.cls-2{fill:#1e0e0e;}.cls-3{fill:#ddc087;}.cls-4{fill:#c69c6d;}.cls-5{fill:#212121;}.cls-13,.cls-6{fill:#171912;}.cls-18,.cls-19,.cls-7{fill:none;}.cls-7{stroke-width:3px;}.cls-8{fill:#513c3a;}.cls-9{fill:#d8d7d6;}.cls-16,.cls-9{opacity:0.7;}.cls-10{fill:#f4e4d9;}.cls-11{fill:#3f2a23;}.cls-12{fill:#9ea8af;}.cls-13{stroke-miterlimit:10;}.cls-14{fill:#e6daed;}.cls-15{fill:#1e86c6;stroke:#754a11;stroke-width:2.09px;}.cls-16{fill:#f4d3b0;}.cls-17{fill:#332715;opacity:0.3;}.cls-18,.cls-19{stroke:#c9e6f7;}.cls-19{stroke-dasharray:0.98 3.93;}.cls-20{fill:#bc964b;}</style></defs><title>furtivo-post</title><g id="Layer_2" data-name="Layer 2"><g id="FURTIVO"><path id="FURTIVO-FUNDO" class="cls-1" d="M233.49,285c-12.29,1.58-24.08-10.92-41-3-6.43,3-14,2.65-19.2,5.53l.66.47a3.35,3.35,0,0,0-.87-.36l-.59.36.52-.38c-10.1-3-79.56-2.57-86.06-5.62-16.92-7.92-28.71,4.58-41,3-39-60.53-43.89-155.16-9-211,33-52.78,87.3-68.94,102.54-72.88l.23-.06.23.06C155.19,5.06,209.51,21.22,242.49,74,277.38,129.84,272.51,224.47,233.49,285Z"/><path id="cabelo_corstas" data-name="cabelo corstas" class="cls-2" d="M252,156.28C252,379,142,379,142,379S32,375,32,156.74C32,96,59.76,32.68,141.76,32.51,219.76,32.35,252,95.53,252,156.28Z"/><path id="braco2" class="cls-3" d="M23.81,448.09c0-8.75-2.25-13.2-2.25-13.2s-3.67-3.22-10.22,3.19C6,443.34,13,450.33,11.17,454.33c-.8,1.79-2.69,1.91-3.93.39C3,449.51-.41,444.26,1.58,432.85,4,418.71,7.43,413.23,7.43,413.23L25,358.18l29.43-82.72c3-8.72,8.48-9.78,12-8.72l53.9,17.61-49,85L37.55,424.43l-7.24,22C29.56,449.41,23.8,451.11,23.81,448.09Z"/><path id="braço1" class="cls-3" d="M265.61,446.82c-.45-8.74,1.62-13.29,1.62-13.29s3.52-3.4,10.37,2.7c5.63,5-1.05,12.31.93,16.22.89,1.75,2.79,1.79,4,.2,4-5.39,7.14-10.81,4.62-22.11-3.12-14-6.77-19.32-6.77-19.32l-20.14-54.15-33.34-81.25c-3.44-8.57-8.93-9.37-12.37-8.14l-53,20.15,52.95,82.56,36.32,53.45,8.28,21.67C259.93,448.41,265.77,449.84,265.61,446.82Z"/><path id="perna1" class="cls-4" d="M112.81,693.57l-43.66.09s-38,2.08-5.69-22.39c-2.39-23.39-9.54-87.57-9.54-87.57l-11.24-110c2.07-2.62,19.75-24.28,49.95-24.11,29.61.18,46.89,21.18,49.05,23.9l-8.76,110-7.67,98.74A12.52,12.52,0,0,1,112.81,693.57Z"/><path id="perna2" class="cls-4" d="M173.48,693.44l43.67-.09s38,1.92,5.59-22.41c2.29-23.4,9.18-87.62,9.18-87.62l10.76-110c-2.38-3-18.82-22.85-47.05-23.9-31.2-1.17-50,21.65-51.95,24.11l9.24,110L161,682.2A12.51,12.51,0,0,0,173.48,693.44Z"/><path class="cls-5" d="M238.69,478.31C227.9,481.2,211.34,475,195,475c-12,0-31,6.64-52.27,7.51C131.82,483,118.2,479.39,94,478c-19.43-1.11-38,3.68-48.67-.07a4.14,4.14,0,0,1-2.7-4.39C46.71,438.25,52.83,427,57,391.69l-3.05-41a14.37,14.37,0,0,1,.06-5.43l12.67-71.43a5.83,5.83,0,0,1,5.8-5.17l37.8-6.08,3.07-13.95a147,147,0,0,0,28.86,2.68,145.56,145.56,0,0,0,29.89-3l3.18,14.15,42,5.91,12.83,73.58a27.72,27.72,0,0,1,.33,9.44l-2.44,40,13.65,72.15C242.24,468.69,243.76,477,238.69,478.31Z"/><path id="cabeça" class="cls-3" d="M254.9,191.89c0,10.69-8.61,24.66-19.3,24.68a26.9,26.9,0,0,1-9.15-1.46c-11.78,17.27-31.15,28.26-54.39,33.18a145.49,145.49,0,0,1-29.89,3,147.05,147.05,0,0,1-28.86-2.68c-23.6-4.69-43.33-15.57-55.37-32.87A27.39,27.39,0,0,1,49.7,217c-10.69,0-19.39-13.91-19.42-24.6,0-13.33,6.48-12,15.16-13.7-.16-2.07-.23-4.18-.24-6.35-.16-77,43.1-114.49,96.56-114.6s96.87,33.9,97,114.2c0,2.09-.06,4.15-.2,6.15C247.83,179.26,254.87,177.41,254.9,191.89Z"/><path class="cls-6" d="M109.59,184.13c0,10.11-6.11,10.09-13.69,10.1s-13.74.06-13.76-10,6.1-16.54,13.68-16.55S109.57,174,109.59,184.13Z"/><path class="cls-7" d="M73.59,183.31c0-9.36,6-16.28,14.86-18.81,10-2.85,19,1,22,7"/><path class="cls-8" d="M67.84,167c5.2-10.45,17.64-25,28.74-23.16s11.85,7.37,16.14,14.83C83.05,153.77,94.1,154,67.84,167Z"/><path class="cls-8" d="M252,156.28c-.13-60.75-32.26-123.93-110.26-123.77-18.94,0-38.12,3.54-54.93,12.56-20.59,11-35.49,29.7-44.12,51.2a146.59,146.59,0,0,0-8.87,33.85q-1.26,8.81-1.64,17.71A69,69,0,0,1,31,156.51c-.73,4.46.16,9.71,1,14.09.24,1.22.64,2.59,1.74,3.17a4.37,4.37,0,0,0,2.33.26c4.15-.28,9-1,11-4.57.63-1.1,1-2.42,1.9-3.26,1.62-1.44,4.39-.89,6-2.39a9.5,9.5,0,0,0,1.32-2,8,8,0,0,1,5.86-3.72,9,9,0,0,0,2.81-.45c2.66-1.23,2.07-5.37,4-7.53s6.25-1.52,8.34-3.81c1.67-1.83,1.39-5,3.29-6.57,1.31-1.09,3.28-1.08,4.6-2.16,1.55-1.27,1.71-3.59,2.87-5.22,2-2.85,6.34-2.79,9.14-4.89,1.7-1.28,2.7-3.25,3.7-5.13,1.5-2.83,3.92-2.9,6-5.33,1.77-2,3-15,11-20,0,7-6.1,16.28-6.29,18.18-.26,2.49-1.33,10.92-3.06,12.75-2,2-8.13,6.79-9.65,9.07s-1.27,4.69-3,7c-3.31,4.42-14,3-14,3,3.56,1.24,7.09,2.68,10.69,3.77,5.73,1.74,10.23-3.34,15.32-5.13a5.73,5.73,0,0,1,2.08-.39c2,.09,3.49,1.76,5.24,2.69,3.77,2,8.4.51,12.26-1.32a25.1,25.1,0,0,1,6.26-2.41c3.9-.67,6.83,2.42,10.74,1.55a6.24,6.24,0,0,0,2.91-1.21c1-.94,1.3-2.44,2.14-3.54,1.78-2.36,5.72-2.56,7-5.23a11.06,11.06,0,0,0,.59-3.1c.33-2.34,3.86-4.81,3.65-7.12-.06-.73-1.86-3.56,4.14-9.56.93-.93-.62,5-.23,6,.45,1.22.74,2.54,1.1,3.8.51,1.79,1,3.77.2,5.46-.54,1.18-1.63,2-2.19,3.2-1,2-.23,4.58-1.52,6.37-.83,1.16-2.35,1.73-3,3-.25.49-.36,1-.62,1.52a5.71,5.71,0,0,1-2.39,2.08C153.11,149.3,153,149,149,149c0,0,6,1.6,6.42,1.5,6.65-1.7,14.5-4.7,17.39-11.58a36.8,36.8,0,0,1,1.48-3.74c1.74-3.08,5.61-4.54,7.18-7.71,2.05-4.14-1.9-10,.46-13.6.92-1.38,2.93-2.19,4-3.6a7.55,7.55,0,0,0,1.5-5.07c-.26-4.9-.92-10-3.23-14.36C183.37,89.36,196.39,88,195,87c1.49,3.27-2.35,4.14.57,6.26a16.29,16.29,0,0,1,4.08,4.66c1.73,2.75-2.36,6.28-1.91,9.55s-1.57,6.51-2.2,9.62c-.58,2.91-.41,6.19,1.49,8.47,2.37,2.83,7.1,3.76,8,7.34.35,1.43-.05,2.93,0,4.4a7.23,7.23,0,0,0,5.18,6.51c1.79.49,3.84.31,5.32,1.42a6.22,6.22,0,0,1,1.87,2.85c1,2.55,1.49,5.27,2.48,7.83s2.57,5,5,6.24c1.05.52,2.21.78,3.24,1.32,2.43,1.29,3.77,3.91,5.49,6.05,1.94,2.42,3.78,2.83,6.63,3.08,2.31.2,5.11,1.75,7.42.52C252.57,170.54,252,160.65,252,156.28Z"/><ellipse class="cls-9" cx="100.95" cy="187.5" rx="4" ry="4.5"/><path class="cls-6" d="M173,184.13c0,10.11,6.11,10.09,13.7,10.1s13.73.06,13.75-10-6.09-16.54-13.68-16.55S173,174,173,184.13Z"/><path class="cls-7" d="M209,183.31c0-9.36-6-16.28-14.86-18.81-10-2.85-19,1-22,7"/><path class="cls-8" d="M214,149.22c-5.41-1.48-26.61-2-35.35.93S167.16,161,166.51,166.22Z"/><ellipse class="cls-9" cx="192.61" cy="187.5" rx="4" ry="4.5"/><path class="cls-10" d="M154.89,220.87c4.27-1.5,8.48-3.25,12.93-4a2.48,2.48,0,0,1,1.86.18,2.57,2.57,0,0,1,.8,1.37c1,3.17,1.84,6.66.65,9.77a10.76,10.76,0,0,1-6.31,5.82,28.88,28.88,0,0,1-8.67,1.52q-6.93.45-13.86.41c-8.17,0-16.57-.66-23.93-4.21-3.72-1.8-2.11-3.77,1.1-4.08,4-.39,8.07-.51,12.09-1.08A119.92,119.92,0,0,0,154.89,220.87Z"/><path class="cls-5" d="M66.39,266.74c-3.5-1.06-9,0-12,8.72L25,358.18,7.43,413.23s-.11.18-.28.51a135.51,135.51,0,0,1,30.92,9.85L71.3,369.32l49-85Z"/><path class="cls-5" d="M215.68,268.63c3.45-1.22,8.94-.39,12.34,8.19l33,81.38,19.92,54.24.3.49a135.86,135.86,0,0,0-30.47,11.18L215.2,371.32l-52.6-82.78Z"/><path class="cls-5" d="M238.69,478.31C227.9,481.2,211.34,475,195,475c-12,0-31,6.64-52.27,7.51C131.82,483,118.2,479.39,94,478c-19.43-1.11-38,3.68-48.67-.07a4.14,4.14,0,0,1-2.7-4.39C46.71,438.25,52.83,427,57,391.69l-3.05-41a14.37,14.37,0,0,1,.06-5.43l12.67-71.43a5.83,5.83,0,0,1,5.8-5.17l37.8-6.08,3.07-13.95a147,147,0,0,0,28.86,2.68,145.56,145.56,0,0,0,29.89-3l3.18,14.15,42,5.91,12.83,73.58a27.72,27.72,0,0,1,.33,9.44l-2.44,40,13.65,72.15C242.24,468.69,243.76,477,238.69,478.31Z"/><path class="cls-11" d="M245.67,476.29c0,15.48-4.16,48-7.8,73.71-2.86,20.2-5.42,36.12-5.42,36.12s-1.08,9.68-2.54,22.88c-2.17,19.65-5.18,47.11-6.74,62.16a1.43,1.43,0,0,1-1.43,1.29H161.51a1.43,1.43,0,0,1-1.44-1.33L155.24,609l-1.79-23c-1-13.16-2.1-24.78-3.15-36-1.73-18.48-3.46-35.77-5.19-56.88a1.44,1.44,0,0,0-2.88,0c-2.78,33.65-5.54,57.64-8.32,92.41l-6.64,85.59a1.45,1.45,0,0,1-1.44,1.33H65.68a1.44,1.44,0,0,1-1.44-1.29c-2.57-24.91-9.33-85.46-9.33-85.46S42.05,503.52,41.69,475.87c-.18-14.69,4.73-49.87,5.19-58.51A1.43,1.43,0,0,1,48.32,416H237.61a1.43,1.43,0,0,1,1.44,1.32C239.73,425.89,245.68,461.45,245.67,476.29Z"/><path class="cls-12" d="M104.58,380.63,110,261l-46,7-18,106.67a126.92,126.92,0,0,0,58.64,6Z"/><path class="cls-12" d="M180.31,380.63,174.94,261l47,7,18,106.67a126.46,126.46,0,0,1-28,6.33A136.56,136.56,0,0,1,180.31,380.63Z"/><path class="cls-13" d="M135.83,580.45H51.68c-.38,0,11.77,90.66,11.78,90.82-32.31,24.47,5.68,22.39,5.68,22.39l43.67-.09c6.43,0,12.81-4.9,13.44-11.3l.92-11.87C127.06,670.44,136,580.45,135.83,580.45Z"/><path class="cls-13" d="M150.44,580.45h84.15c.39,0-11.76,90.66-11.78,90.82,32.31,24.47-5.68,22.39-5.68,22.39l-43.67-.09c-6.43,0-12.81-4.9-13.44-11.3l-.92-11.87C159.21,670.44,150.32,580.45,150.44,580.45Z"/><path class="cls-14" d="M140,1v.12l-.23-.06Z"/><path class="cls-12" d="M233.49,285c-12.29,1.58-24.08-10.92-41-3-6.77,3.17-14.76,2.6-20,6,41.71-30.87,66.75-31.93,61-82C216.76,60.31,145.74,63.29,139.73,62.06h0c-6,1.23-77-1.75-93.76,143.94-5.75,50.07,86.29,51.13,128,82-5.24-3.4-80.23-2.83-87-6-16.92-7.92-28.71,4.58-41,3-39-60.53-43.89-155.16-9-211,33-52.78,87.3-68.94,102.54-72.88l.23-.06.23.06C155.19,5.06,209.51,21.22,242.49,74,277.38,129.84,272.51,224.47,233.49,285Z"/><path class="cls-14" d="M139.72,1.06l-.23.06V1Z"/><path class="cls-15" d="M176.27,290c-6.34.59-19.92-6.93-19.92-6.93s12-9.86,18.32-10.45,18.53,7.06,18.53,7.06S182.6,289.45,176.27,290Z"/><path class="cls-16" d="M179.56,286.25c-2.24,1.05-4.71.93-5.5-.26s1.57-1.21,3.81-2.25c4.45-2.07,4-1.95,4.3-1.53C183,283.4,181.8,285.21,179.56,286.25Z"/><path class="cls-17" d="M170.25,277.65c-3.12,2.08-3.41,3.91-2.54,5.93s3.17-.58,6.76-2.05,7.1-1.24,6.23-3.26S176.06,273.78,170.25,277.65Z"/><ellipse class="cls-16" cx="173.22" cy="283.85" rx="1.71" ry="1.04" transform="matrix(1, -0.09, 0.09, 1, -25.25, 17.04)"/><path class="cls-18" d="M190,285l-.21.45"/><path class="cls-19" d="M187.35,288.54C171.11,303.74,103,295,103,295s-27.85-2.61-38.08-9.46"/><path class="cls-18" d="M63.31,284.34,63,284"/><path class="cls-20" d="M105,370.7l-.45,9.93a126.92,126.92,0,0,1-58.64-6l1.65-9.78A126.79,126.79,0,0,0,105,370.7Z"/><path class="cls-20" d="M180.94,370.7l.45,9.93a126.92,126.92,0,0,0,58.64-6l-1.65-9.78a126.79,126.79,0,0,1-57.44,5.81Z"/></g></g></svg>