<svg xmlns="http://www.w3.org/2000/svg" viewBox="0 0 183.15 120.53"><defs><style>.cls-1{fill:#604728;stroke:#332b1c;stroke-linecap:round;stroke-linejoin:round;stroke-width:2px;}</style></defs><title>cabelo-4</title><g id="Camada_2" data-name="Camada 2"><g id="Camada_1-2" data-name="Camada 1"><path class="cls-1" d="M182.11,99.83a9.53,9.53,0,0,1-1.34,5.65c-2,3.42-6.2,9.7-10.14,10.67-5.77,1.42-19,3-19,3,4.53-4.83,8.25-12.64,5.55-19.18-1-2.52-3-4.5-4.21-6.94-1-2-.6-3.38-2.85-4.67-4.5-2.6-11.64,1.34-14.65-4.67-.77-1.55-.89-3.55-2.3-4.56a4.93,4.93,0,0,0-2.48-.71c-4.62-.41-9.32.34-13.9-.4s-9.34-3.6-10.2-8.16c-.74-4,1.45-8.8-1.35-11.71-2.54-2.63-7.09-1.31-10.4-2.88s-4.63-5.85-4.73-9.61.51-7.64-.73-11.19c-2.11-6.1-9.7-9.19-15.15-6.12-2,1.12-1.81,1.76-4.29,2.29-1.6.34-3.44-.34-5,.21-4.58,1.6-3.51,5.48-4.43,9.28-.6,2.45-3.25,3.76-5.67,4.48s-5.11,1.32-6.64,3.33c-1.29,1.71-1.41,4-2.32,6-2.92,6.25-12.49,5.46-12.56,13.86A6.52,6.52,0,0,1,33,70.9c-.82,1.51-2.9,1.7-4.31,2.68-2.55,1.79-2.36,5.61-1.58,8.63s1.83,6.42.19,9.08c-1.56,2.51-5.11,3.48-6.16,6.25-1.33,3.49-2.79,7-2.59,10.72C18.66,111,26,119.53,26,119.53s-13.2-5.75-15.64-7.73c-1.34-1.08-5.65-3.75-6.22-5.26-.8-2.12,1.47-2.74,1.11-4.67C5,100.68,3.36,100.59,2.32,100c-2.07-1.23-1.41-4.44,0-6.42s3.29-4,3-6.38-2.87-4.68-1.75-6.83c.54-1,1.78-1.52,2.65-2.32,3.37-3.08.24-9,2.31-13.11,1.39-2.72,4.91-4.1,5.65-7.06.53-2.13-.58-4.5.29-6.51.95-2.21-.16-3,1-5.1,1-1.86,2.43-1.16,2.48-3.29a10.12,10.12,0,0,1,5.58-8.7c1.6-.78,3.64-1.36,4.15-3.06a15.58,15.58,0,0,0,.23-1.65C28.69,25,36.68,25.2,38,20.74c.24-.8.21-1.67.42-2.48.65-2.53,2.38-4.92,4.94-5.47s5.29-.64,7.54-2,3.7-3.75,6-5.11a13.9,13.9,0,0,1,5.42-1.6c6.95-1,13.93-.5,20.9-1.15s18.89-.34,25.76-1.52l1.21-.2c1.63-.28,3.48-.51,4.79.51C116,2.58,116.34,4,117,5.16a8.9,8.9,0,0,0,6,3.82,31.22,31.22,0,0,0,7.36.19,6.67,6.67,0,0,1,3.38.45c2.07,1.07,2.54,3.85,4.21,5.49,3,3,8.78,1.31,11.59,4.47,1.69,1.91,1.55,4.78,2.4,7.18a8.9,8.9,0,0,0,4.32,4.94c1.42.71,3,1.06,4.3,2,4.11,3.11,2,10.09,5,14.28,2.34,3.26,10.56,7.5,11.14,11.47.38,2.64-1.64,5-1.94,7.68-.33,2.86,1.36,5.5,2.75,8s2.54,5.65,1.18,8.19c-.64,1.19-1.77,2.09-2.29,3.34-.86,2.07.21,4.45,1.58,6.23s3.09,3.39,3.79,5.52A6.77,6.77,0,0,1,182.11,99.83Z"/></g></g></svg>