<svg xmlns="http://www.w3.org/2000/svg" xmlns:xlink="http://www.w3.org/1999/xlink" viewBox="0 0 315.46 401.76"><defs><style>.cls-1{fill:#4f789c;}.cls-1,.cls-2,.cls-3{stroke:#000;stroke-miterlimit:10;stroke-width:2px;}.cls-2{fill:url(#Gradiente_sem_nome_19);}.cls-3{fill:url(#Gradiente_sem_nome_5);}</style><linearGradient id="Gradiente_sem_nome_19" x1="-470.63" y1="-358.25" x2="-288.97" y2="-358.25" gradientTransform="matrix(1.1, 0.1, 0.1, 1.1, 548.89, 548.89)" gradientUnits="userSpaceOnUse"><stop offset="0.17" stop-color="#ceb752"/><stop offset="0.76" stop-color="#cab24f"/><stop offset="0.97" stop-color="#896b29"/></linearGradient><linearGradient id="Gradiente_sem_nome_5" x1="3396.91" y1="-2389.15" x2="3652.01" y2="-2389.15" gradientTransform="matrix(0.71, 0.71, -0.9, 0.9, -4432.84, -215.27)" gradientUnits="userSpaceOnUse"><stop offset="0" stop-color="#d6b15f"/><stop offset="1" stop-color="#ceb752"/></linearGradient></defs><title>Inglês </title><g id="Camada_2" data-name="Camada 2"><g id="vetoriza_medalha" data-name="vetoriza medalha"><path class="cls-1" d="M158.18,400.76C85,400.46,19.71,267.32,42,167.47c7.94-35.57,25.84-61.7,41.23-79,10.07-7.35,34.55-23,68.49-23.44,38.53-.45,65.82,19.06,75.42,26.67,9.29,10.77,53.72,64.43,50.57,142C274.31,317.91,216.11,401,158.18,400.76Z"/><path class="cls-2" d="M150.81,5.46,3.66,185.17a12.87,12.87,0,0,0,0,15.68l18.53,22.63a8,8,0,0,0,12.84,0L182.18,43.77a12.9,12.9,0,0,0,0-15.68L163.65,5.46A8,8,0,0,0,150.81,5.46Z"/><path class="cls-3" d="M312.5,187.23,162,3.39a5.87,5.87,0,0,0-9.46,0l-23.8,29.08a9.47,9.47,0,0,0,0,11.55L279.23,227.86a5.88,5.88,0,0,0,9.47,0l23.8-29.07A9.51,9.51,0,0,0,312.5,187.23Z"/></g></g></svg>