<svg xmlns="http://www.w3.org/2000/svg" viewBox="0 0 343.99 713.32"><defs><style>.cls-1{fill:#82609c;}.cls-1,.cls-10,.cls-11,.cls-18,.cls-2,.cls-3,.cls-4,.cls-5,.cls-7,.cls-9{stroke:#332715;}.cls-1,.cls-10,.cls-11,.cls-12,.cls-13,.cls-14,.cls-15,.cls-19,.cls-2,.cls-20,.cls-21,.cls-3,.cls-4,.cls-5,.cls-7,.cls-9{stroke-linecap:round;stroke-linejoin:round;}.cls-1,.cls-10,.cls-11,.cls-12,.cls-13,.cls-14,.cls-18,.cls-2,.cls-3,.cls-5,.cls-7,.cls-9{stroke-width:2px;}.cls-2{fill:#331e0a;}.cls-3{fill:#c69c6d;}.cls-12,.cls-13,.cls-14,.cls-4,.cls-7{fill:none;}.cls-15,.cls-4{stroke-width:3px;}.cls-5{fill:#684521;}.cls-18,.cls-6{fill:#171912;}.cls-8{fill:#d8d7d6;}.cls-16,.cls-8{opacity:0.7;}.cls-9{fill:#3f2a23;}.cls-10{fill:#e6daed;}.cls-11{fill:#bc964b;}.cls-12,.cls-13,.cls-14{stroke:#e6daed;}.cls-13{stroke-dasharray:1.01 4.04;}.cls-14{stroke-dasharray:1.02 4.09;}.cls-15,.cls-19,.cls-20,.cls-21{fill:#c71c9c;stroke:#754a11;}.cls-16{fill:#f4d3b0;}.cls-17{fill:#332715;opacity:0.3;}.cls-18{stroke-miterlimit:10;}.cls-19{stroke-width:1.29px;}.cls-20{stroke-width:0.98px;}.cls-21{stroke-width:0.7px;}</style></defs><title>Maga-post</title><g id="Layer_2" data-name="Layer 2"><g id="MAGOS"><path id="MAGO" class="cls-1" d="M277.89,517.61h0a381.84,381.84,0,0,1-230.36,1.13l-3.64-1.13,38-228,79-20,78,20Z"/><path id="cabelo_corstas" data-name="cabelo corstas" class="cls-2" d="M271,174.89c0,222.72-110.07,222.72-110.07,222.72S51,393.61,51,175.35C51,114.6,78.7,51.29,160.7,51.12,238.7,51,271,114.14,271,174.89Z"/><path id="braco2" class="cls-3" d="M22.3,456.19c1.53-8.61,0-13.38,0-13.38S19.27,439,11.72,444.2c-6.2,4.26-.48,12.35-2.94,16-1.1,1.63-3,1.42-3.94-.29C1.57,454-.91,448.28,3,437.38c4.83-13.51,9.11-18.33,9.11-18.33l26.71-51.24L82,291.33c4.48-8.07,10-8.19,13.29-6.54l50.1,26.56L82.55,386.7,39.88,435.23,29,455.71C27.74,458.48,21.77,459.17,22.3,456.19Z"/><path id="perna1" class="cls-3" d="M131.75,712.18l-43.67.09s-38,2.08-5.68-22.39c-2.39-23.39-9.55-87.57-9.55-87.57l-11.23-110c2.07-2.62,19.74-24.28,49.95-24.11,29.61.18,46.89,21.18,49.05,23.9q-4.38,55-8.77,110l-7.66,98.74A12.52,12.52,0,0,1,131.75,712.18Z"/><path id="perna2" class="cls-3" d="M192.42,712.06l43.66-.1s38,1.92,5.6-22.41c2.29-23.4,9.17-87.62,9.17-87.62l10.77-110c-2.38-3-18.82-22.85-47.05-23.9-31.2-1.17-50,21.65-51.95,24.11q4.62,55,9.23,110l8.08,98.71A12.53,12.53,0,0,0,192.42,712.06Z"/><path class="cls-3" d="M257.63,496.92c-10.79,2.89-27.35-3.34-43.74-3.31-12,0-31,6.64-52.27,7.51-10.86.44-24.48-3.12-48.73-4.51-19.43-1.11-38,3.68-48.67-.07a4.14,4.14,0,0,1-2.7-4.39c4.13-35.29,10.25-46.57,14.38-81.85l-3.06-41a14.37,14.37,0,0,1,.07-5.43l12.67-71.43a5.83,5.83,0,0,1,5.8-5.17l37.8-6.08,3.07-13.95a147,147,0,0,0,28.86,2.68,145.56,145.56,0,0,0,29.89-3l3.18,14.15,42,5.91L249,360.54a28.25,28.25,0,0,1,.33,9.44l-2.44,40,13.65,72.15C261.18,487.3,262.7,495.56,257.63,496.92Z"/><path id="cabeça" class="cls-3" d="M273.84,210.5c0,10.69-8.62,24.66-19.31,24.68a26.84,26.84,0,0,1-9.14-1.46C233.61,251,214.24,262,191,266.9a145.56,145.56,0,0,1-29.89,3,147,147,0,0,1-28.86-2.68c-23.6-4.69-43.33-15.57-55.37-32.87a27.5,27.5,0,0,1-8.25,1.2c-10.69,0-19.38-13.9-19.41-24.59,0-13.33,6.48-12,15.15-13.71-.15-2.07-.22-4.18-.23-6.35-.16-77,43.1-114.49,96.56-114.6s96.87,33.9,97,114.2c0,2.09-.06,4.15-.2,6.15C266.77,197.87,273.81,196,273.84,210.5Z"/><path class="cls-4" d="M92.53,209.92s7.86,7.19,17.86,4.19c12.45-3.73,16-13,16-13"/><path class="cls-5" d="M89.85,174.74c6.92-6.31,18-8.75,27.09-7.33s13,7.72,12.71,16.7Z"/><path class="cls-6" d="M188.55,208.61c0,10.11,6.17,8.07,13.76,8s13.72,2,13.69-8.11-6.19-22.51-13.77-22.5S188.53,198.5,188.55,208.61Z"/><path class="cls-4" d="M224.55,209.65c-.05-9.37-5.73-19.16-12.94-24.91s-14.5-4.36-20.9,1.95"/><path class="cls-5" d="M224.78,170c-7.52-5.58-18.77-6.89-27.69-4.56s-12.18,9-11,17.89Z"/><path class="cls-7" d="M195.89,236.61c0,7.46-19.87,15.12-28,16-7.82.85-27,0-31-9"/><path id="cabelo_frente" data-name="cabelo frente" class="cls-5" d="M271,174.89c.13,60.75-58.12-57.88-58.12-57.88-48.91,46.1-84.72,58.2-90.9,51.19-3.94-4.47-9.3-16.13,9.92-41-34.18,29.3-72,58.91-79.58,52A5,5,0,0,1,51,175.35C50.83,114.6,78.7,51.29,160.7,51.12,238.7,51,270.83,114.14,271,174.89Z"/><ellipse class="cls-8" cx="208.89" cy="209.11" rx="4" ry="4.5"/><path class="cls-9" d="M264.61,494.9c0,15.48-4.16,48-7.8,73.71-2.86,20.2-5.42,36.12-5.42,36.12s-1.08,9.68-2.54,22.88c-2.17,19.65-5.18,47.11-6.74,62.16a1.43,1.43,0,0,1-1.43,1.29H180.45a1.43,1.43,0,0,1-1.44-1.33l-4.83-62.12-1.79-23c-1-13.16-2.1-24.78-3.15-36-1.73-18.48-3.46-35.77-5.19-56.88a1.44,1.44,0,0,0-2.88,0c-2.78,33.65-5.54,57.64-8.32,92.41l-6.64,85.59a1.45,1.45,0,0,1-1.44,1.33H84.62a1.44,1.44,0,0,1-1.44-1.29c-2.57-24.91-9.33-85.46-9.33-85.46S61,522.13,60.63,494.48c-.18-14.69,4.73-49.87,5.19-58.51a1.43,1.43,0,0,1,1.44-1.36H256.55a1.43,1.43,0,0,1,1.44,1.32C258.67,444.5,264.62,480.06,264.61,494.9Z"/><path id="braço1" class="cls-3" d="M230.13,450.13c3.94-1.47,6.21-5.94,10.57-7,3.58,1.76,4.06,4.39,3.75,9.53-.25,4.23-8.16,6.51-10.42,10-1,1.57.09,3.47,2.49,3.08,8.2-1.33,12.77-2.47,18.21-10.36,6.73-9.76,4-5.31,13.45-20.28s23.65-35.41,22-63.95-24.72-63.93-48.58-79.55c-10-6.56-11.9-6.28-16.53-2.26-18,15.59-27.47,31.52-39.61,52.19,27.56,6,47.23-2.55,58.42,27.8s.77,38.77-4,54.4-9.43,12.83-12.26,19.93S228.77,450.64,230.13,450.13Z"/><path class="cls-10" d="M264.91,447.59c-21.07-2.53-38.4-15.92-50.87-33.16-3.24-4.48-7.52-13.82-9.62-19.73,31.07-35.54,28.64-34.27-7.29-59.07A259.44,259.44,0,0,1,236.18,286C300.1,338.25,307.19,376.79,264.91,447.59Z"/><path class="cls-11" d="M213.24,386.27a33.12,33.12,0,0,0-9.08,8.52c2.67,7.82,11.39,22.46,15.83,27.18,14.39,15.31,25.52,21.77,44.51,25.68,3.21-5.56,6.92-10.7,10.38-16-18.63-2.95-30-7.56-44.73-21.59C225.49,405.66,217.63,392.63,213.24,386.27Z"/><path class="cls-1" d="M75.9,410.3c1.51-9.29,2.13-23.12-3.06-41a14.37,14.37,0,0,1,.07-5.43l12.67-71.43a5.83,5.83,0,0,1,5.8-5.17l37.8-6.08.07-8.95A73.28,73.28,0,0,0,194,271.9l.18,9.15,42,5.91L249,360.54a28,28,0,0,1,.33,9.44l-2.45,42.63c15.57,35.41,17.68,64.61,20.05,75a3.47,3.47,0,0,1-2.62,4.16c-16.58,3.78-83.63,11.6-102.7,12.38-9.68.39-86.47-7.05-103-8.66a3.19,3.19,0,0,1-1.2-.38A3.29,3.29,0,0,1,56,493.3a3.45,3.45,0,0,1-.11-1.28C56.15,489.63,72.8,429.44,75.9,410.3Z"/><path class="cls-12" d="M194.89,276.61v.5"/><path class="cls-13" d="M194.64,281.14c-2.71,26.2-26.28,76.89-31.66,88.2"/><path class="cls-12" d="M162.11,371.17l-.22.44-.23-.44"/><path class="cls-14" d="M159.78,367.55c-7.45-14.48-32.08-64-33.8-88.39"/><path class="cls-12" d="M125.89,277.11v-.5"/><path class="cls-10" d="M5.18,421.91c8.16,8.44,27.27,25.64,56.13,30.29a93.54,93.54,0,0,0,23.76.75c12.08-42.94,29-93,41.07-135.94l-44.3-29.9Z"/><path class="cls-11" d="M89.66,437q-2.39,8.1-4.59,15.93a93.1,93.1,0,0,1-23.76-.75c-28.86-4.64-48-21.85-56.13-30.29L13.07,408c9.1,8.92,27.41,23.86,54,28.15A92.57,92.57,0,0,0,89.66,437Z"/><path class="cls-10" d="M43.89,517.61h0a70.74,70.74,0,0,0,77.33-67.25l7.67-170.75-46,7Z"/><path class="cls-11" d="M100.89,283.61l28-13-6,148-16.52-42.75a151.84,151.84,0,0,1-5.48-92.25Z"/><path class="cls-10" d="M277.89,517.61h0a70.74,70.74,0,0,1-77.33-67.25l-7.67-170.75,46,7Z"/><path class="cls-11" d="M220.89,283.61l-28-13,6,147,16.34-41.82a150.73,150.73,0,0,0,5.66-92.18Z"/><path class="cls-15" d="M173.89,397.11c0,9.11-5.6,16.5-12.5,16.5s-12.5-7.39-12.5-16.5,12.5-25.5,12.5-25.5S173.89,388,173.89,397.11Z"/><path class="cls-16" d="M168.93,391.92c1.2,3.34.7,6.84-1.1,7.82s-1.51-2.41-2.71-5.74c-2.37-6.61-2.25-6-1.62-6.34C165.3,386.68,167.74,388.59,168.93,391.92Z"/><path class="cls-17" d="M155.44,404.08c2.55,4.71,5.13,5.37,8.12,4.39s-.41-4.6-2-9.9-.84-10.3-3.83-9.32S150.68,395.28,155.44,404.08Z"/><ellipse class="cls-16" cx="164.66" cy="400.66" rx="1.49" ry="2.44"/><path class="cls-18" d="M154.77,599.06H70.62c-.39,0,11.76,90.66,11.78,90.82-32.31,24.47,5.68,22.39,5.68,22.39l43.67-.09c6.43,0,12.81-4.9,13.44-11.3l.92-11.87C146,689.05,154.89,599.06,154.77,599.06Z"/><path class="cls-18" d="M169.38,599.06h84.15c.39,0-11.76,90.66-11.78,90.82,32.31,24.47-5.68,22.39-5.68,22.39l-43.67-.09c-6.43,0-12.81-4.9-13.44-11.3L178,689C178.15,689.05,169.26,599.06,169.38,599.06Z"/><path class="cls-1" d="M292.92,143.43c-12.53,14.64-64.93-8.13-97.78-32.11-33.32-24.32-71-67.74-60.77-84.14C144.45,11,201,21.31,239.74,49.71S305.32,129,292.92,143.43Z"/><path class="cls-1" d="M260.74,2c-15.22,6.6-55.62,19.5-76.5,33.27-13.27,8.74-7,15.56-6,18.29,5,13.5,18.83,28,34.43,39.55,15,11.17,33.71,18.24,45.47,20.06,6,.93,12-1.27,13.33-7.21l9.69-42.82a1.12,1.12,0,0,1,.75-.81,2.75,2.75,0,0,0,1.51-4.15,1.12,1.12,0,0,1,.48-1.6l57.7-27.34a2.44,2.44,0,0,0-.05-4.45C325.51,17.71,274.47-3.93,260.74,2Z"/><path class="cls-19" d="M264.11,121.9c1.4,3.65,1,6.15-1.72,7.21s-7.88.28-9.28-3.36,1.08-13.12,1.08-13.12S262.71,118.26,264.11,121.9Z"/><path class="cls-16" d="M260.33,119.59c1,1.15,1.33,2.63.76,3.3s-1-.73-2-1.88c-2-2.28-1.83-2.05-1.63-2.29C258.07,118.05,259.34,118.44,260.33,119.59Z"/><path class="cls-17" d="M256.8,126.53c1.75,1.49,2.88,1.36,3.93.51s-.87-1.78-2.34-3.65-1.92-4-3-3.14S253.54,123.74,256.8,126.53Z"/><ellipse class="cls-16" cx="259.97" cy="123.74" rx="0.64" ry="1.05" transform="translate(-27.09 101.54) rotate(-21.03)"/><path class="cls-20" d="M275.37,117.84c1.66,2.45,2,4.88.12,6.14s-5.62.64-7.28-1.82-1.76-9.49-1.76-9.49S273.71,115.38,275.37,117.84Z"/><path class="cls-16" d="M272.18,116.77c.93.68,1.43,1.72,1.12,2.31s-.84-.37-1.77-1c-1.84-1.35-1.7-1.21-1.59-1.41C270.25,116,271.25,116.09,272.18,116.77Z"/><path class="cls-17" d="M270.76,122.5c1.54.81,2.36.52,3-.29s-.94-1.16-2.35-2.3-2.1-2.62-2.72-1.81S267.87,121,270.76,122.5Z"/><ellipse class="cls-16" cx="272.62" cy="119.9" rx="0.48" ry="0.79" transform="translate(-20.4 173.2) rotate(-34.05)"/><path class="cls-21" d="M278.37,107.28c1.85,1.08,2.82,2.56,2,4a3.48,3.48,0,0,1-5.3,1.1c-1.7-1.3-4.12-5.62-4.12-5.62S276.52,106.2,278.37,107.28Z"/><path class="cls-16" d="M276,107.59c.82.15,1.47.66,1.46,1.15s-.67,0-1.49-.13c-1.62-.3-1.48-.26-1.48-.42C274.47,107.7,275.14,107.44,276,107.59Z"/><path class="cls-17" d="M276.83,111.76c1.26,0,1.7-.4,1.85-1.13s-1-.46-2.25-.75-2.18-1-2.34-.33S274.48,111.69,276.83,111.76Z"/><ellipse class="cls-16" cx="277.23" cy="109.49" rx="0.35" ry="0.57" transform="translate(43.03 293.87) rotate(-59.76)"/><path class="cls-11" d="M271.45,106c-1.35,5.93-7.3,8.13-13.32,7.2-11.77-1.82-30.44-8.89-45.48-20.06-15.6-11.59-29.43-26-34.43-39.54-1-2.74-7.24-9.56,6-18.3,1.18-.79,2.43-1.56,3.74-2.34a38,38,0,0,0,2,4.44c5,13.49,18.83,28,34.43,39.54,15,11.17,33.71,18.24,45.48,20.07a17.35,17.35,0,0,0,3.58.17Z"/></g></g></svg>