<svg xmlns="http://www.w3.org/2000/svg" xmlns:xlink="http://www.w3.org/1999/xlink" viewBox="0 0 315.46 401.21"><defs><style>.cls-1{fill:#c54954;}.cls-1,.cls-2,.cls-3{stroke:#000;stroke-miterlimit:10;stroke-width:2px;}.cls-2{fill:url(#Gradiente_sem_nome_19);}.cls-3{fill:url(#Gradiente_sem_nome_5);}</style><linearGradient id="Gradiente_sem_nome_19" x1="-646.37" y1="-533.99" x2="-464.71" y2="-533.99" gradientTransform="matrix(1.1, 0.1, 0.1, 1.1, 760.91, 760.91)" gradientUnits="userSpaceOnUse"><stop offset="0.17" stop-color="#ceb752"/><stop offset="0.76" stop-color="#cab24f"/><stop offset="0.97" stop-color="#896b29"/></linearGradient><linearGradient id="Gradiente_sem_nome_5" x1="2662.43" y1="-3538.63" x2="2917.52" y2="-3538.63" gradientTransform="matrix(0.71, 0.71, -0.9, 0.9, -4953.32, 1343.93)" gradientUnits="userSpaceOnUse"><stop offset="0" stop-color="#d6b15f"/><stop offset="1" stop-color="#ceb752"/></linearGradient></defs><title>Matemática </title><g id="Camada_2" data-name="Camada 2"><g id="vetoriza_medalha" data-name="vetoriza medalha"><path class="cls-1" d="M272.86,159.17c-9.25,0-13.89-8.91-13.94-17.89a12.42,12.42,0,0,1-3.94.63c-14.14,0-17.52-20.8-10.2-30.84l-.52-.45a120.19,120.19,0,0,1-10.93-9.51A7.7,7.7,0,0,1,233,90.83c-7.44-6.1-15.86-11.36-21.56-20-.16-.25-.31-.5-.44-.75H107.67c1.57,10.14-3,22-13.65,22-.29,0-.57,0-.86,0a97.88,97.88,0,0,1-10.75,12c-8.71,8.43-16.75,16.76-23,27.59a20.63,20.63,0,0,1,.16,2.36v13.59c0,10.12-6.63,17.62-14.46,18.06a10.32,10.32,0,0,1-5.43-1.25V397.51l118.3,2.7,115.78-.45V159.12C273.47,159.14,273.18,159.17,272.86,159.17Z"/><path class="cls-2" d="M150.81,5.46,3.66,185.17a12.87,12.87,0,0,0,0,15.68l18.53,22.63a8,8,0,0,0,12.84,0L182.18,43.77a12.9,12.9,0,0,0,0-15.68L163.65,5.46A8,8,0,0,0,150.81,5.46Z"/><path class="cls-3" d="M312.5,187.23,162,3.39a5.87,5.87,0,0,0-9.46,0l-23.8,29.08a9.47,9.47,0,0,0,0,11.55L279.23,227.86a5.88,5.88,0,0,0,9.47,0l23.8-29.07A9.51,9.51,0,0,0,312.5,187.23Z"/></g></g></svg>