<svg xmlns="http://www.w3.org/2000/svg" viewBox="0 0 34.21 35.1"><defs><style>.cls-1{fill:#f4f4f4;}.cls-2{fill:#1e1f19;}.cls-3{fill:none;stroke:#332b1c;stroke-linecap:round;stroke-linejoin:round;stroke-width:3px;}.cls-4{fill:#d6d5d4;opacity:0.7;}</style></defs><title>olho-1</title><g id="Camada_2" data-name="Camada 2"><g id="Camada_1-2" data-name="Camada 1"><path class="cls-1" d="M7,23.86c-.4-1.08-2.15-3.77-2.94-5.51-1.77-3.87-2.72-5.44.55-8.16l6.93-5.28a9.37,9.37,0,0,1,6.05-2.19c4,0,10.32.59,13.38,3.78,5.14,5.36,4.14,21.36-2.86,26.36-4.25,3-9.06,2.88-14.28.45a9.33,9.33,0,0,1-4.19-3.89A41.53,41.53,0,0,1,7,23.86Z"/><path class="cls-2" d="M31.29,23.62c0,7.62-4.61,10.62-10.32,10.63s-10.35-3-10.36-10.59,4.59-17,10.3-17S31.28,16,31.29,23.62Z"/><path class="cls-3" d="M6.17,25C4.5,22.36,1.5,13.36,1.5,13.36s9.18-9.91,13-11c7-2,13.25-.48,18.09,4.24"/><ellipse class="cls-4" cx="24.03" cy="28.42" rx="3.01" ry="3.39"/></g></g></svg>