<svg xmlns="http://www.w3.org/2000/svg" xmlns:xlink="http://www.w3.org/1999/xlink" viewBox="0 0 315.46 398.9"><defs><style>.cls-1{fill:#5d2e7d;}.cls-1,.cls-2,.cls-3{stroke:#000;stroke-miterlimit:10;stroke-width:2px;}.cls-2{fill:url(#Gradiente_sem_nome_19);}.cls-3{fill:url(#Gradiente_sem_nome_5);}</style><linearGradient id="Gradiente_sem_nome_19" x1="-95.79" y1="16.59" x2="85.87" y2="16.59" gradientTransform="matrix(1.1, 0.1, 0.1, 1.1, 96.68, 96.68)" gradientUnits="userSpaceOnUse"><stop offset="0.17" stop-color="#ceb752"/><stop offset="0.76" stop-color="#cab24f"/><stop offset="0.97" stop-color="#896b29"/></linearGradient><linearGradient id="Gradiente_sem_nome_5" x1="2497.09" y1="-197.47" x2="2752.19" y2="-197.47" gradientTransform="matrix(0.71, 0.71, -0.9, 0.9, -1813.93, -1561.64)" gradientUnits="userSpaceOnUse"><stop offset="0" stop-color="#d6b15f"/><stop offset="1" stop-color="#ceb752"/></linearGradient></defs><title>Psicologia</title><g id="Camada_2" data-name="Camada 2"><g id="vetoriza_medalha" data-name="vetoriza medalha"><path class="cls-1" d="M296.76,327.09c0,139.5-141.25,29.84-141.25,29.84S14.25,466.59,14.25,327.09,155.51,74.52,155.51,74.52,296.76,187.6,296.76,327.09Z"/><path class="cls-2" d="M150.81,5.46,3.66,185.17a12.87,12.87,0,0,0,0,15.68l18.53,22.63a8,8,0,0,0,12.84,0L182.18,43.77a12.9,12.9,0,0,0,0-15.68L163.65,5.46A8,8,0,0,0,150.81,5.46Z"/><path class="cls-3" d="M312.5,187.23,162,3.39a5.87,5.87,0,0,0-9.46,0l-23.8,29.08a9.47,9.47,0,0,0,0,11.55L279.23,227.86a5.88,5.88,0,0,0,9.47,0l23.8-29.07A9.51,9.51,0,0,0,312.5,187.23Z"/></g></g></svg>