<?xml version="1.0" encoding="iso-8859-1"?>
<!-- Generator: Adobe Illustrator 21.0.0, SVG Export Plug-In . SVG Version: 6.00 Build 0)  -->
<svg xmlns="http://www.w3.org/2000/svg" xmlns:xlink="http://www.w3.org/1999/xlink" version="1.1" id="Capa_1" x="0px" y="0px" viewBox="0 0 512 512" style="enable-background:new 0 0 512 512;" xml:space="preserve" width="512" height="512">
<g>
	<path style="fill:#E63950;" d="M116.236,384.654L71.353,355.65L4.391,421.612c-3.911,3.911-5.347,9.653-3.75,14.956   c1.597,5.288,5.991,9.272,11.411,10.356l44.228,8.643l8.643,44.228c1.084,5.42,5.068,9.814,10.356,11.411   c1.436,0.439,2.9,0.645,4.351,0.645c3.926,0,7.749-1.538,10.605-4.395l31.816-31.816c12.173-12.173,18.545-30.019,17.461-47.216   C138.428,411.24,129.947,395.288,116.236,384.654z"/>
	<path style="fill:#FFD396;" d="M355.901,73.449c-1.5-4.799-5.4-8.699-10.501-9.899l-49.199-13.2L268.599,6.749   C265.6,2.25,260.799,0.15,256,0.15s-9.6,2.1-12.599,6.599l-27.601,43.601l-49.199,13.2c-5.101,1.199-9.001,5.099-10.501,9.899   c-1.5,4.801-0.599,10.201,2.701,14.101l32.1,39.6l-2.701,50.7c-0.3,5.099,2.1,9.899,6,12.9c4.2,2.999,9.6,3.9,14.399,1.8   L256,174.549l47.401,18.001c4.799,1.8,10.199,1.199,14.399-1.8c3.9-3.001,6.301-7.8,6-12.9l-2.701-50.7l32.1-39.6   C356.499,83.65,357.4,78.25,355.901,73.449z"/>
	<path style="fill:#FFB64C;" d="M428.357,255.205l-23.452-28.271l-36.68-2.358c-5.273-0.337-9.99-3.442-12.393-8.159   c-2.417-4.717-2.153-10.356,0.688-14.839l19.658-31.04l-9.097-35.596c-1.318-5.127,0.176-10.562,3.926-14.312   c3.735-3.765,9.214-5.244,14.312-3.926l35.596,9.097l31.04-19.658c4.482-2.871,10.078-3.105,14.839-0.688   c4.717,2.402,7.822,7.119,8.159,12.393l2.358,36.68l29.271,23.452c4.072,3.384,6.064,8.657,5.229,13.887   c-0.82,5.229-4.351,9.639-9.272,11.602l-35.131,13.564l-13.564,34.131c-1.963,4.922-6.372,8.452-11.602,9.272   C437.29,261.276,431.85,259.412,428.357,255.205z"/>
	<path style="fill:#FFD396;" d="M69.757,260.435c-5.229-0.82-9.639-4.351-11.602-9.272l-13.564-34.131L9.46,203.467   c-4.922-1.963-8.452-6.372-9.272-11.602c-0.835-5.229,1.157-10.503,5.229-13.887l29.271-23.452l2.358-36.68   c0.337-5.273,3.442-9.99,8.159-12.393c4.746-2.388,10.371-2.153,14.839,0.688l31.04,19.658l35.596-9.097   c5.112-1.318,10.576,0.161,14.312,3.926c3.75,3.75,5.244,9.185,3.926,14.312l-9.097,35.596l19.658,31.04   c2.842,4.482,3.105,10.122,0.688,14.839c-2.402,4.717-7.119,7.822-12.393,8.159l-36.68,2.358l-23.452,28.271   C80.156,259.405,74.718,261.277,69.757,260.435z"/>
	<path style="fill:#AE2538;" d="M507.609,421.612l-66.962-65.962l-50.698,34.146c-11.338,11.323-17.578,26.396-17.578,42.422   s6.24,32.099,17.578,43.422l31.816,31.816c2.856,2.856,6.68,4.395,10.605,4.395c1.45,0,2.915-0.205,4.351-0.645   c5.288-1.597,9.272-5.991,10.356-11.411l8.643-44.228l44.228-8.643c5.42-1.084,9.814-5.068,11.411-10.356   C512.956,431.265,511.52,425.523,507.609,421.612z"/>
	<path style="fill:#FFB64C;" d="M303.401,192.55L256,174.549V0.15c4.799,0,9.6,2.1,12.599,6.599l27.601,43.601l49.199,13.2   c5.101,1.199,9.001,5.099,10.501,9.899c1.5,4.801,0.599,10.201-2.701,14.101l-32.1,39.6l2.701,50.7c0.3,5.099-2.1,9.899-6,12.9   C313.599,193.75,308.2,194.35,303.401,192.55z"/>
	<path style="fill:#FF637B;" d="M457.301,302.349L451,299.35c-69.3-32.1-136.5-42.301-195-42.001   c-116.4,0.901-199.2,44.401-201.301,45c-6.899,3.001-10.499,11.1-7.798,18.3c24.899,83.101,26.699,88.5,26.699,88.2   c0,0,0,0.601,0.3,0.901c2.701,7.5,10.501,12.001,18.6,9.6c69.3-21.301,119.7-30.601,163.5-31.201   c57.001-0.899,102.9,12.601,163.5,31.201c7.8,2.401,15.899-1.8,18.6-9.6c2.1-6-7.8,27.299,26.999-89.101   C467.8,313.449,464.2,305.351,457.301,302.349z"/>
	<path style="fill:#E63950;" d="M465.099,320.649C430.3,437.049,440.2,403.75,438.1,409.75c-2.701,7.8-10.8,12.001-18.6,9.6   c-60.601-18.6-106.5-32.1-163.5-31.201v-130.8c58.5-0.3,125.7,9.901,195,42.001l6.301,2.999   C464.2,305.351,467.8,313.449,465.099,320.649z"/>
</g>















</svg>
