<?xml version="1.0"?>
<svg xmlns="http://www.w3.org/2000/svg" xmlns:xlink="http://www.w3.org/1999/xlink" xmlns:svgjs="http://svgjs.com/svgjs" version="1.1" width="512" height="512" x="0" y="0" viewBox="0 0 511.999 511.999" style="enable-background:new 0 0 512 512" xml:space="preserve" class=""><g>
<g xmlns="http://www.w3.org/2000/svg">
	<g>
		<path d="M462.348,422.764c7.138-9.614,11.367-21.509,11.367-34.375c0-31.867-25.925-57.793-57.793-57.793    s-57.793,25.925-57.793,57.793c0,12.897,4.249,24.818,11.416,34.444c-13.504,5.9-25.086,15.384-33.558,27.243    c-8.504-11.905-20.141-21.417-33.71-27.312c7.138-9.614,11.367-21.509,11.367-34.375c0-31.867-25.925-57.793-57.793-57.793    c-31.867,0-57.793,25.925-57.793,57.793c0,12.897,4.249,24.818,11.416,34.444c-13.477,5.888-25.041,15.346-33.508,27.172    c-8.499-11.872-20.118-21.358-33.66-27.242c7.138-9.614,11.367-21.509,11.367-34.375c0-31.867-25.926-57.793-57.793-57.793    s-57.793,25.925-57.793,57.793c0,12.897,4.249,24.818,11.416,34.444c-28.573,12.484-48.599,41.003-48.599,74.125v15.041h510.193    v-15.041C511.099,463.777,491.002,435.213,462.348,422.764z" fill="#e0ac7b" data-original="#000000" style=""/>
	</g>
</g>
<g xmlns="http://www.w3.org/2000/svg">
	<g>
		<polygon points="358.554,173.162 294.753,152.989 255.851,98.543 216.95,152.989 153.148,173.162 192.908,226.984     192.377,293.897 255.851,272.716 319.325,293.897 318.795,226.984   " fill="#e0ac7b" data-original="#000000" style=""/>
	</g>
</g>
<g xmlns="http://www.w3.org/2000/svg">
	<g>
		<rect x="241.012" width="30.082" height="43.077" fill="#e0ac7b" data-original="#000000" style=""/>
	</g>
</g>
<g xmlns="http://www.w3.org/2000/svg">
	<g>
		<rect x="422.519" y="180.966" width="43.078" height="30.082" fill="#e0ac7b" data-original="#000000" style=""/>
	</g>
</g>
<g xmlns="http://www.w3.org/2000/svg">
	<g>
		<rect x="46.51" y="180.966" width="43.077" height="30.082" fill="#e0ac7b" data-original="#000000" style=""/>
	</g>
</g>
<g xmlns="http://www.w3.org/2000/svg">
	<g>
		
			<rect x="373.027" y="56.016" transform="matrix(0.7071 -0.7071 0.7071 0.7071 66.3601 302.3224)" width="50.177" height="30.082" fill="#e0ac7b" data-original="#000000" style=""/>
	</g>
</g>
<g xmlns="http://www.w3.org/2000/svg">
	<g>
		<rect x="98.74" y="45.767" transform="matrix(0.7071 -0.7071 0.7071 0.7071 -16.7768 101.2088)" width="30.082" height="50.177" fill="#e0ac7b" data-original="#000000" style=""/>
	</g>
</g>
<g xmlns="http://www.w3.org/2000/svg">
</g>
<g xmlns="http://www.w3.org/2000/svg">
</g>
<g xmlns="http://www.w3.org/2000/svg">
</g>
<g xmlns="http://www.w3.org/2000/svg">
</g>
<g xmlns="http://www.w3.org/2000/svg">
</g>
<g xmlns="http://www.w3.org/2000/svg">
</g>
<g xmlns="http://www.w3.org/2000/svg">
</g>
<g xmlns="http://www.w3.org/2000/svg">
</g>
<g xmlns="http://www.w3.org/2000/svg">
</g>
<g xmlns="http://www.w3.org/2000/svg">
</g>
<g xmlns="http://www.w3.org/2000/svg">
</g>
<g xmlns="http://www.w3.org/2000/svg">
</g>
<g xmlns="http://www.w3.org/2000/svg">
</g>
<g xmlns="http://www.w3.org/2000/svg">
</g>
<g xmlns="http://www.w3.org/2000/svg">
</g>
</g></svg>
