<?xml version="1.0"?>
<svg xmlns="http://www.w3.org/2000/svg" xmlns:xlink="http://www.w3.org/1999/xlink" xmlns:svgjs="http://svgjs.com/svgjs" version="1.1" width="512" height="512" x="0" y="0" viewBox="0 0 410 410" style="enable-background:new 0 0 512 512" xml:space="preserve" class=""><g><path xmlns="http://www.w3.org/2000/svg" d="m410 205c0 113.21875-91.78125 205-205 205s-205-91.78125-205-205 91.78125-205 205-205 205 91.78125 205 205zm0 0" fill="#dc8d69" data-original="#e48e66" style="" class=""/><path xmlns="http://www.w3.org/2000/svg" d="m0 205c0 113.199219 91.800781 205 205 205v-410c-113.199219 0-205 91.800781-205 205zm0 0" fill="#be7356" data-original="#d18162" style="" class=""/><path xmlns="http://www.w3.org/2000/svg" d="m177.800781 290.300781-84.199219-84.199219c-3.894531-3.894531-3.894531-10.207031 0-14.101562 3.890626-3.894531 10.203126-3.894531 14.097657 0l70.300781 70.398438 129.199219-123.398438c3.976562-3.8125 10.289062-3.675781 14.101562.300781 3.808594 3.976563 3.675781 10.289063-.300781 14.097657zm0 0" fill="#f9f099" data-original="#f8ec7d" style="" class=""/></g></svg>
