<?xml version="1.0" encoding="iso-8859-1"?>
<!-- Generator: Adobe Illustrator 19.0.0, SVG Export Plug-In . SVG Version: 6.00 Build 0)  -->
<svg version="1.1" id="Capa_1" xmlns="http://www.w3.org/2000/svg" xmlns:xlink="http://www.w3.org/1999/xlink" x="0px" y="0px"
	 viewBox="0 0 512.001 512.001" style="enable-background:new 0 0 512.001 512.001;" xml:space="preserve">
<path style="fill:#A567DB;" d="M358.7,0.103c-8.792-0.444-16.626,5.56-18.92,14.059l-14.215,52.657
	c-3.795,14.06-16.549,23.828-31.112,23.828h-27.504v-1.836c15.846-4.713,27.406-19.383,27.406-36.76
	c0-21.183-17.172-38.355-38.355-38.355s-38.355,17.172-38.355,38.355c0,17.377,11.56,32.047,27.406,36.76v1.836h-27.252
	c-14.563,0-27.317-9.767-31.113-23.828l-14.02-51.935c-2.353-8.716-10.259-14.772-19.288-14.772l0,0
	c-11.637,0-20.099,11.049-17.066,22.284l23.235,86.074c1.768,6.55,4.878,12.439,8.978,17.416c0.619,0.751,1.23,1.507,1.835,2.267
	c20.07,25.228,30.641,56.709,30.641,88.947v158.258c0,12.001,9.409,22.145,21.406,22.474c12.447,0.341,22.644-9.646,22.644-22.016
	V258.157c0-6.047,4.902-10.949,10.949-10.949c6.047,0,10.949,4.902,10.949,10.949V375.36c0,12.001,9.409,22.145,21.406,22.474
	c12.447,0.341,22.644-9.646,22.644-22.016V217.424c0-32.22,10.616-63.64,30.607-88.909c0.698-0.882,1.405-1.758,2.121-2.628
	c4.1-4.977,7.209-10.866,8.977-17.416l22.955-85.034C378.734,12.044,370.515,0.7,358.7,0.103z"/>
<path style="fill:#9054D1;" d="M358.7,0.103c-8.792-0.444-16.626,5.56-18.92,14.059l-14.215,52.657
	c-2.062,7.637-6.779,13.989-12.981,18.216l-6.326,23.435c-1.768,6.55-4.878,12.44-8.977,17.416
	c-0.716,0.869-1.424,1.745-2.122,2.628c-19.991,25.269-30.607,56.688-30.607,88.909v33.907c1.496,1.872,2.396,4.242,2.396,6.826
	v117.202c0,12.001,9.409,22.145,21.406,22.475c12.447,0.341,22.644-9.647,22.644-22.016V217.424c0-32.22,10.616-63.64,30.607-88.909
	c0.698-0.882,1.405-1.758,2.122-2.628c4.1-4.977,7.209-10.866,8.977-17.416l22.954-85.034C378.734,12.044,370.515,0.7,358.7,0.103z"
	/>
<path style="fill:#FD9727;" d="M508.205,409.27H341.333v-32.404c0-2.096-1.699-3.795-3.795-3.795H174.462
	c-2.096,0-3.795,1.699-3.795,3.795v32.404H3.795c-2.096,0-3.795,1.699-3.795,3.795v95.062c0,2.096,1.699,3.795,3.795,3.795h166.872
	h170.667h166.872c2.096,0,3.795-1.699,3.795-3.795v-95.062C512,410.969,510.301,409.27,508.205,409.27z"/>
<g>
	<path style="fill:#FF6D3A;" d="M508.205,409.27h-42.651v102.652h42.651c2.096,0,3.795-1.699,3.795-3.795v-95.062
		C512,410.969,510.301,409.27,508.205,409.27z"/>
	<path style="fill:#FF6D3A;" d="M337.433,373.071h-42.995v138.851h46.79V376.866C341.228,374.77,339.529,373.071,337.433,373.071z"
		/>
	<rect x="123.81" y="409.271" style="fill:#FF6D3A;" width="46.79" height="102.65"/>
</g>
<path style="fill:#FFFFFF;" d="M260.966,409.994c-0.976,0-1.774,0.355-2.395,0.887l-10.464,7.981
	c-1.419,0.886-2.217,2.572-2.217,4.168c0,2.306,1.507,4.612,3.725,4.612c0.62,0,1.419-0.177,2.128-0.798l2.838-2.838v47.357
	c0,2.394,2.838,3.636,5.764,3.636c2.838,0,5.764-1.242,5.764-3.636v-57.644C266.11,411.413,263.361,409.994,260.966,409.994z"/>
<g>
</g>
<g>
</g>
<g>
</g>
<g>
</g>
<g>
</g>
<g>
</g>
<g>
</g>
<g>
</g>
<g>
</g>
<g>
</g>
<g>
</g>
<g>
</g>
<g>
</g>
<g>
</g>
<g>
</g>
</svg>
